<svg xmlns="http://www.w3.org/2000/svg" xmlns:xlink="http://www.w3.org/1999/xlink" viewBox="0 0 886.07 762.66"><defs><style>.cls-1{isolation:isolate;}.cls-2{fill:gray;}.cls-3{fill:#b3b3b3;}.cls-4{fill:#e6e6e6;}.cls-5{fill:#ccc;}.cls-10,.cls-14,.cls-32,.cls-6{fill:#fff;}.cls-7{fill:#1a1a1a;}.cls-8{fill:url(#名称未設定グラデーション_3);}.cls-9{stroke:#000;stroke-miterlimit:10;stroke-width:0.25px;opacity:0.2;}.cls-10{opacity:0.25;}.cls-11{fill:#f2f2f2;}.cls-12{font-size:22.18px;}.cls-12,.cls-14{font-family:Arial-Black, Arial Black;font-weight:800;}.cls-13{fill:#e70000;}.cls-14{font-size:18.63px;}.cls-15{fill:#acabb9;}.cls-16{fill:#ea4a49;}.cls-17{fill:#e8c17d;}.cls-18{fill:#c21e1d;}.cls-19{fill:#5589b9;}.cls-20{fill:#b2b2b2;}.cls-21{fill:#456f96;}.cls-22{fill:#cea55f;}.cls-23{fill:#575756;}.cls-24{fill:#f66232;}.cls-25{fill:#f15865;}.cls-26{fill:#f13646;}.cls-27{fill:#d12f3d;}.cls-28{fill:#dadada;}.cls-28,.cls-29,.cls-32,.cls-37,.cls-44{opacity:0.5;}.cls-29{fill:#ededed;}.cls-30{fill:#db9d2d;}.cls-31{fill:#f9b233;}.cls-33{fill:#706f6f;}.cls-34{fill:#e85323;}.cls-35{fill:#1d1d1b;}.cls-36{fill:#de3e4b;}.cls-37,.cls-38{fill:#ff4756;}.cls-37,.cls-40,.cls-44{mix-blend-mode:multiply;}.cls-39,.cls-40{fill:#ffbb7d;}.cls-40{opacity:0.3;}.cls-41,.cls-44{fill:#3f76ab;}.cls-42{fill:#e6975a;}.cls-43{fill:#faab6e;}</style><linearGradient id="名称未設定グラデーション_3" x1="450.83" y1="440.12" x2="883.67" y2="440.12" gradientUnits="userSpaceOnUse"><stop offset="0" stop-color="#e6e6e6"/><stop offset="1" stop-color="#b3b3b3"/></linearGradient></defs><g class="cls-1"><g id="レイヤー_1" data-name="レイヤー 1"><path class="cls-2" d="M610,624.21l80.11,46a5.19,5.19,0,0,0,5.21,0l126.24-73.32c3.47-2,5-13.73,1.5-15.73V587c-1.62-.93-82.94-53.42-84.55-52.48l-128.28,75.8C606.75,612.29,606.51,622.21,610,624.21Z" transform="translate(-68 -101)"/><path class="cls-3" d="M610,618.38l80.11,46a5.19,5.19,0,0,0,5.21,0L821.55,591a5.21,5.21,0,0,0,0-9l-80.11-46a5.21,5.21,0,0,0-5.21,0L610,609.35A5.22,5.22,0,0,0,610,618.38Z" transform="translate(-68 -101)"/><path class="cls-3" d="M642.12,852.11,378.3,699.78a5.8,5.8,0,0,1,0-10l71.18-41.1a5.83,5.83,0,0,1,5.8,0L719.1,801a5.81,5.81,0,0,1,0,10l-71.18,41.1A5.83,5.83,0,0,1,642.12,852.11Z" transform="translate(-68 -101)"/><path class="cls-4" d="M642.12,849.1,378.3,696.77a5.8,5.8,0,0,1,0-10l71.18-41.09a5.78,5.78,0,0,1,5.8,0L719.1,798a5.8,5.8,0,0,1,0,10l-71.18,41.1A5.78,5.78,0,0,1,642.12,849.1Z" transform="translate(-68 -101)"/><path class="cls-5" d="M448.6,666,441,661.59c-2.52-1.46-2.52-3.82,0-5.27l7.64-4.42a10.15,10.15,0,0,1,9.14,0l7.64,4.42c2.52,1.45,2.52,3.81,0,5.27L457.74,666A10.08,10.08,0,0,1,448.6,666Z" transform="translate(-68 -101)"/><path class="cls-5" d="M468.87,677.71l-7.64-4.41c-2.52-1.46-2.52-3.82,0-5.28l7.64-4.41a10.08,10.08,0,0,1,9.14,0l7.64,4.41c2.52,1.46,2.52,3.82,0,5.28L478,677.71A10.15,10.15,0,0,1,468.87,677.71Z" transform="translate(-68 -101)"/><path class="cls-5" d="M488.44,689l-7.64-4.41c-2.52-1.46-2.52-3.82,0-5.28l7.64-4.41a10.08,10.08,0,0,1,9.14,0l7.64,4.41c2.52,1.46,2.52,3.82,0,5.28L497.58,689A10.08,10.08,0,0,1,488.44,689Z" transform="translate(-68 -101)"/><path class="cls-5" d="M508.72,700.71l-7.65-4.41c-2.52-1.46-2.52-3.82,0-5.27l7.65-4.42a10.13,10.13,0,0,1,9.13,0l7.64,4.42c2.52,1.45,2.52,3.81,0,5.27l-7.64,4.41A10.06,10.06,0,0,1,508.72,700.71Z" transform="translate(-68 -101)"/><path class="cls-5" d="M529,712.42,521.34,708c-2.52-1.46-2.52-3.82,0-5.28l7.65-4.41a10.06,10.06,0,0,1,9.13,0l7.64,4.41c2.52,1.46,2.52,3.82,0,5.28l-7.64,4.41A10.13,10.13,0,0,1,529,712.42Z" transform="translate(-68 -101)"/><path class="cls-5" d="M549.26,724.12l-7.64-4.41c-2.53-1.46-2.53-3.82,0-5.27l7.64-4.42a10.13,10.13,0,0,1,9.13,0l7.64,4.42c2.53,1.45,2.53,3.81,0,5.27l-7.64,4.41A10.06,10.06,0,0,1,549.26,724.12Z" transform="translate(-68 -101)"/><path class="cls-5" d="M568.83,735.42,561.19,731c-2.52-1.46-2.52-3.82,0-5.27l7.64-4.42a10.13,10.13,0,0,1,9.13,0l7.65,4.42c2.52,1.45,2.52,3.81,0,5.27L578,735.42A10.06,10.06,0,0,1,568.83,735.42Z" transform="translate(-68 -101)"/><path class="cls-5" d="M589.1,747.13l-7.64-4.41c-2.52-1.46-2.52-3.82,0-5.28L589.1,733a10.06,10.06,0,0,1,9.13,0l7.65,4.41c2.52,1.46,2.52,3.82,0,5.28l-7.65,4.41A10.13,10.13,0,0,1,589.1,747.13Z" transform="translate(-68 -101)"/><path class="cls-5" d="M608,758l-7.64-4.41c-2.52-1.45-2.52-3.82,0-5.27l7.64-4.41a10.08,10.08,0,0,1,9.14,0l7.64,4.41c2.52,1.45,2.52,3.82,0,5.27L617.11,758A10.08,10.08,0,0,1,608,758Z" transform="translate(-68 -101)"/><path class="cls-5" d="M628.24,769.73l-7.64-4.41c-2.52-1.46-2.52-3.82,0-5.28l7.64-4.41a10.08,10.08,0,0,1,9.14,0L645,760c2.52,1.46,2.52,3.82,0,5.28l-7.64,4.41A10.08,10.08,0,0,1,628.24,769.73Z" transform="translate(-68 -101)"/><path class="cls-5" d="M647.82,781l-7.65-4.41c-2.52-1.46-2.52-3.82,0-5.28l7.65-4.41a10.06,10.06,0,0,1,9.13,0l7.64,4.41c2.52,1.46,2.52,3.82,0,5.28L657,781A10.06,10.06,0,0,1,647.82,781Z" transform="translate(-68 -101)"/><path class="cls-5" d="M668.09,792.73l-7.64-4.41c-2.53-1.45-2.53-3.82,0-5.27l7.64-4.41a10.06,10.06,0,0,1,9.13,0l7.64,4.41c2.53,1.45,2.53,3.82,0,5.27l-7.64,4.41A10.06,10.06,0,0,1,668.09,792.73Z" transform="translate(-68 -101)"/><path class="cls-5" d="M696.05,808.88l-14.63-8.45c-2.53-1.46-2.53-3.82,0-5.27l7.64-4.42a10.13,10.13,0,0,1,9.13,0l14.63,8.45c2.53,1.46,2.53,3.82,0,5.28l-7.64,4.41A10.13,10.13,0,0,1,696.05,808.88Z" transform="translate(-68 -101)"/><path class="cls-5" d="M457.69,693l-7.64-4.41c-2.53-1.45-2.53-3.82,0-5.27l7.64-4.41a10.06,10.06,0,0,1,9.13,0l7.64,4.41c2.53,1.45,2.53,3.82,0,5.27L466.82,693A10.06,10.06,0,0,1,457.69,693Z" transform="translate(-68 -101)"/><path class="cls-5" d="M478,704.75l-7.64-4.41c-2.52-1.46-2.52-3.82,0-5.28l7.64-4.41a10.06,10.06,0,0,1,9.13,0l7.65,4.41c2.52,1.46,2.52,3.82,0,5.28l-7.65,4.41A10.06,10.06,0,0,1,478,704.75Z" transform="translate(-68 -101)"/><path class="cls-5" d="M497.53,716.05l-7.64-4.41c-2.52-1.46-2.52-3.82,0-5.28l7.64-4.41a10.08,10.08,0,0,1,9.14,0l7.64,4.41c2.52,1.46,2.52,3.82,0,5.28l-7.64,4.41A10.08,10.08,0,0,1,497.53,716.05Z" transform="translate(-68 -101)"/><path class="cls-5" d="M517.8,727.75l-7.64-4.41c-2.52-1.45-2.52-3.82,0-5.27l7.64-4.41a10.08,10.08,0,0,1,9.14,0l7.64,4.41c2.52,1.45,2.52,3.82,0,5.27l-7.64,4.41A10.08,10.08,0,0,1,517.8,727.75Z" transform="translate(-68 -101)"/><path class="cls-5" d="M538.07,739.46l-7.64-4.41c-2.52-1.46-2.52-3.82,0-5.28l7.64-4.41a10.08,10.08,0,0,1,9.14,0l7.64,4.41c2.52,1.46,2.52,3.82,0,5.28l-7.64,4.41A10.08,10.08,0,0,1,538.07,739.46Z" transform="translate(-68 -101)"/><path class="cls-5" d="M558.34,751.16l-7.64-4.41c-2.52-1.46-2.52-3.82,0-5.27l7.64-4.42a10.15,10.15,0,0,1,9.14,0l7.64,4.42c2.52,1.45,2.52,3.81,0,5.27l-7.64,4.41A10.08,10.08,0,0,1,558.34,751.16Z" transform="translate(-68 -101)"/><path class="cls-5" d="M577.92,762.46l-7.65-4.41c-2.52-1.45-2.52-3.82,0-5.27l7.65-4.41a10.06,10.06,0,0,1,9.13,0l7.64,4.41c2.52,1.45,2.52,3.82,0,5.27l-7.64,4.41A10.06,10.06,0,0,1,577.92,762.46Z" transform="translate(-68 -101)"/><path class="cls-5" d="M598.19,774.17l-7.64-4.41c-2.53-1.46-2.53-3.82,0-5.28l7.64-4.41a10.06,10.06,0,0,1,9.13,0l7.64,4.41c2.53,1.46,2.53,3.82,0,5.28l-7.64,4.41A10.06,10.06,0,0,1,598.19,774.17Z" transform="translate(-68 -101)"/><path class="cls-5" d="M617.06,785.07l-7.64-4.42c-2.52-1.45-2.52-3.81,0-5.27l7.64-4.41a10.06,10.06,0,0,1,9.13,0l7.65,4.41c2.52,1.46,2.52,3.82,0,5.27l-7.65,4.42A10.13,10.13,0,0,1,617.06,785.07Z" transform="translate(-68 -101)"/><path class="cls-5" d="M637.33,796.77l-7.64-4.41c-2.52-1.46-2.52-3.82,0-5.28l7.64-4.41a10.15,10.15,0,0,1,9.14,0l7.64,4.41c2.52,1.46,2.52,3.82,0,5.28l-7.64,4.41A10.08,10.08,0,0,1,637.33,796.77Z" transform="translate(-68 -101)"/><path class="cls-5" d="M656.9,808.07l-7.64-4.41c-2.52-1.46-2.52-3.82,0-5.28L656.9,794a10.15,10.15,0,0,1,9.14,0l7.64,4.41c2.52,1.46,2.52,3.82,0,5.28L666,808.07A10.08,10.08,0,0,1,656.9,808.07Z" transform="translate(-68 -101)"/><path class="cls-5" d="M677.17,819.78l-7.64-4.42c-2.52-1.45-2.52-3.81,0-5.27l7.64-4.41a10.08,10.08,0,0,1,9.14,0l7.64,4.41c2.52,1.46,2.52,3.82,0,5.27l-7.64,4.42A10.15,10.15,0,0,1,677.17,819.78Z" transform="translate(-68 -101)"/><path class="cls-5" d="M443.71,706.77l-7.64-4.41c-2.53-1.46-2.53-3.82,0-5.28l7.64-4.41a10.06,10.06,0,0,1,9.13,0l7.64,4.41c2.53,1.46,2.53,3.82,0,5.28l-7.64,4.41A10.13,10.13,0,0,1,443.71,706.77Z" transform="translate(-68 -101)"/><path class="cls-5" d="M464,718.47l-7.64-4.41c-2.52-1.46-2.52-3.82,0-5.27l7.64-4.42a10.13,10.13,0,0,1,9.13,0l7.65,4.42c2.52,1.45,2.52,3.81,0,5.27l-7.65,4.41A10.06,10.06,0,0,1,464,718.47Z" transform="translate(-68 -101)"/><path class="cls-5" d="M484.25,730.18l-7.64-4.42c-2.52-1.45-2.52-3.81,0-5.27l7.64-4.41a10.08,10.08,0,0,1,9.14,0l7.64,4.41c2.52,1.46,2.52,3.82,0,5.27l-7.64,4.42A10.15,10.15,0,0,1,484.25,730.18Z" transform="translate(-68 -101)"/><path class="cls-5" d="M504.52,741.88l-7.64-4.41c-2.52-1.46-2.52-3.82,0-5.28l7.64-4.41a10.15,10.15,0,0,1,9.14,0l7.64,4.41c2.52,1.46,2.52,3.82,0,5.28l-7.64,4.41A10.08,10.08,0,0,1,504.52,741.88Z" transform="translate(-68 -101)"/><path class="cls-5" d="M524.09,753.18l-7.64-4.41c-2.52-1.46-2.52-3.82,0-5.28l7.64-4.41a10.15,10.15,0,0,1,9.14,0l7.64,4.41c2.52,1.46,2.52,3.82,0,5.28l-7.64,4.41A10.08,10.08,0,0,1,524.09,753.18Z" transform="translate(-68 -101)"/><path class="cls-5" d="M544.36,764.89l-7.64-4.42c-2.52-1.45-2.52-3.81,0-5.27l7.64-4.41a10.08,10.08,0,0,1,9.14,0l7.64,4.41c2.52,1.46,2.52,3.82,0,5.27l-7.64,4.42A10.15,10.15,0,0,1,544.36,764.89Z" transform="translate(-68 -101)"/><path class="cls-5" d="M563.24,775.78l-7.64-4.41c-2.53-1.46-2.53-3.82,0-5.27l7.64-4.42a10.13,10.13,0,0,1,9.13,0L580,766.1c2.53,1.45,2.53,3.81,0,5.27l-7.64,4.41A10.06,10.06,0,0,1,563.24,775.78Z" transform="translate(-68 -101)"/><path class="cls-5" d="M583.51,787.49l-7.64-4.41c-2.53-1.46-2.53-3.82,0-5.28l7.64-4.41a10.06,10.06,0,0,1,9.13,0l7.64,4.41c2.53,1.46,2.53,3.82,0,5.28l-7.64,4.41A10.13,10.13,0,0,1,583.51,787.49Z" transform="translate(-68 -101)"/><path class="cls-5" d="M603.08,798.79l-7.64-4.41c-2.52-1.46-2.52-3.82,0-5.28l7.64-4.41a10.06,10.06,0,0,1,9.13,0l7.65,4.41c2.52,1.46,2.52,3.82,0,5.28l-7.65,4.41A10.13,10.13,0,0,1,603.08,798.79Z" transform="translate(-68 -101)"/><path class="cls-5" d="M623.35,810.49l-7.64-4.41c-2.52-1.46-2.52-3.82,0-5.27l7.64-4.42a10.15,10.15,0,0,1,9.14,0l7.64,4.42c2.52,1.45,2.52,3.81,0,5.27l-7.64,4.41A10.08,10.08,0,0,1,623.35,810.49Z" transform="translate(-68 -101)"/><path class="cls-5" d="M656.9,830.67l-23-13.29c-2.52-1.45-2.52-3.82,0-5.27l7.65-4.41a10.06,10.06,0,0,1,9.13,0l23,13.29c2.52,1.45,2.52,3.81,0,5.27L666,830.67A10.08,10.08,0,0,1,656.9,830.67Z" transform="translate(-68 -101)"/><path class="cls-5" d="M438.82,682.15l-16.73-9.66c-2.53-1.46-2.53-3.82,0-5.28l7.64-4.41a10.13,10.13,0,0,1,9.13,0l16.73,9.66c2.52,1.46,2.52,3.82,0,5.28L448,682.15A10.13,10.13,0,0,1,438.82,682.15Z" transform="translate(-68 -101)"/><path class="cls-5" d="M424.84,696.68,403.91,684.6c-2.52-1.46-2.52-3.82,0-5.28l7.64-4.41a10.08,10.08,0,0,1,9.14,0L441.61,687c2.52,1.46,2.52,3.82,0,5.27L434,696.68A10.13,10.13,0,0,1,424.84,696.68Z" transform="translate(-68 -101)"/><path class="cls-5" d="M560.44,799.19l-105.5-60.91c-2.52-1.46-2.52-3.82,0-5.28l7.64-4.41a10.08,10.08,0,0,1,9.14,0l105.5,60.92c2.52,1.45,2.52,3.81,0,5.27l-7.64,4.41A10.08,10.08,0,0,1,560.44,799.19Z" transform="translate(-68 -101)"/><path class="cls-5" d="M389.19,700.31l-7.64-4.41c-2.53-1.46-2.53-3.82,0-5.28l7.64-4.41a10.06,10.06,0,0,1,9.13,0l7.64,4.41c2.52,1.46,2.52,3.82,0,5.28l-7.64,4.41A10.06,10.06,0,0,1,389.19,700.31Z" transform="translate(-68 -101)"/><path class="cls-5" d="M409.46,712l-7.64-4.41c-2.53-1.45-2.53-3.82,0-5.27l7.64-4.41a10.06,10.06,0,0,1,9.13,0l7.64,4.41c2.53,1.45,2.53,3.82,0,5.27L418.59,712A10.06,10.06,0,0,1,409.46,712Z" transform="translate(-68 -101)"/><path class="cls-5" d="M442.31,731l-20.22-11.67c-2.53-1.46-2.53-3.82,0-5.28l7.64-4.41a10.06,10.06,0,0,1,9.13,0l20.23,11.68c2.52,1.45,2.52,3.81,0,5.27L451.45,731A10.08,10.08,0,0,1,442.31,731Z" transform="translate(-68 -101)"/><path class="cls-5" d="M580.71,810.9l-7.64-4.42c-2.52-1.45-2.52-3.81,0-5.27l7.64-4.41a10.08,10.08,0,0,1,9.14,0l7.64,4.41c2.52,1.46,2.52,3.82,0,5.27l-7.64,4.42A10.15,10.15,0,0,1,580.71,810.9Z" transform="translate(-68 -101)"/><path class="cls-5" d="M601,822.6l-7.64-4.41c-2.52-1.46-2.52-3.82,0-5.28L601,808.5a10.15,10.15,0,0,1,9.14,0l7.64,4.41c2.52,1.46,2.52,3.82,0,5.28l-7.64,4.41A10.08,10.08,0,0,1,601,822.6Z" transform="translate(-68 -101)"/><path class="cls-5" d="M634.11,830.94l-.57-.33c-2.5-1.44-2.5-3.79,0-5.23h0a10,10,0,0,1,9.07,0l.57.32c2.5,1.45,2.5,3.79,0,5.24h0A10,10,0,0,1,634.11,830.94Z" transform="translate(-68 -101)"/><path class="cls-5" d="M623.91,836.64l-.57-.32c-2.51-1.45-2.51-3.8,0-5.24h0a10,10,0,0,1,9.07,0l.57.33c2.5,1.44,2.5,3.79,0,5.23h0A10,10,0,0,1,623.91,836.64Z" transform="translate(-68 -101)"/><path class="cls-5" d="M636,843.61l-.57-.33c-2.51-1.45-2.51-3.79,0-5.24h0a10.06,10.06,0,0,1,9.07,0l.57.33c2.5,1.45,2.5,3.79,0,5.24h0A10.06,10.06,0,0,1,636,843.61Z" transform="translate(-68 -101)"/><path class="cls-5" d="M611.85,829.68l-.57-.33c-2.51-1.44-2.51-3.79,0-5.23h0a10,10,0,0,1,9.07,0l.57.32c2.5,1.45,2.5,3.79,0,5.24h0A10,10,0,0,1,611.85,829.68Z" transform="translate(-68 -101)"/><path class="cls-6" d="M448.6,664.5,441,660.09c-2.52-1.46-2.52-3.82,0-5.28l7.64-4.41a10.15,10.15,0,0,1,9.14,0l7.64,4.41c2.52,1.46,2.52,3.82,0,5.28l-7.64,4.41A10.08,10.08,0,0,1,448.6,664.5Z" transform="translate(-68 -101)"/><path class="cls-6" d="M468.87,676.2l-7.64-4.41c-2.52-1.45-2.52-3.82,0-5.27l7.64-4.41a10.08,10.08,0,0,1,9.14,0l7.64,4.41c2.52,1.45,2.52,3.82,0,5.27L478,676.2A10.08,10.08,0,0,1,468.87,676.2Z" transform="translate(-68 -101)"/><path class="cls-6" d="M488.44,687.51l-7.64-4.42c-2.52-1.45-2.52-3.81,0-5.27l7.64-4.41a10.08,10.08,0,0,1,9.14,0l7.64,4.41c2.52,1.46,2.52,3.82,0,5.27l-7.64,4.42A10.15,10.15,0,0,1,488.44,687.51Z" transform="translate(-68 -101)"/><path class="cls-6" d="M508.72,699.21l-7.65-4.41c-2.52-1.46-2.52-3.82,0-5.28l7.65-4.41a10.06,10.06,0,0,1,9.13,0l7.64,4.41c2.52,1.46,2.52,3.82,0,5.28l-7.64,4.41A10.06,10.06,0,0,1,508.72,699.21Z" transform="translate(-68 -101)"/><path class="cls-6" d="M529,710.91l-7.65-4.41c-2.52-1.45-2.52-3.82,0-5.27l7.65-4.41a10.06,10.06,0,0,1,9.13,0l7.64,4.41c2.52,1.45,2.52,3.82,0,5.27l-7.64,4.41A10.06,10.06,0,0,1,529,710.91Z" transform="translate(-68 -101)"/><path class="cls-6" d="M549.26,722.62l-7.64-4.41c-2.53-1.46-2.53-3.82,0-5.28l7.64-4.41a10.06,10.06,0,0,1,9.13,0l7.64,4.41c2.53,1.46,2.53,3.82,0,5.28l-7.64,4.41A10.06,10.06,0,0,1,549.26,722.62Z" transform="translate(-68 -101)"/><path class="cls-6" d="M568.83,733.92l-7.64-4.41c-2.52-1.46-2.52-3.82,0-5.28l7.64-4.41a10.06,10.06,0,0,1,9.13,0l7.65,4.41c2.52,1.46,2.52,3.82,0,5.28L578,733.92A10.06,10.06,0,0,1,568.83,733.92Z" transform="translate(-68 -101)"/><path class="cls-6" d="M589.1,745.62l-7.64-4.41c-2.52-1.45-2.52-3.82,0-5.27l7.64-4.41a10.06,10.06,0,0,1,9.13,0l7.65,4.41c2.52,1.45,2.52,3.82,0,5.27l-7.65,4.41A10.06,10.06,0,0,1,589.1,745.62Z" transform="translate(-68 -101)"/><path class="cls-6" d="M608,756.52l-7.64-4.41c-2.52-1.46-2.52-3.82,0-5.28l7.64-4.41a10.15,10.15,0,0,1,9.14,0l7.64,4.41c2.52,1.46,2.52,3.82,0,5.28l-7.64,4.41A10.08,10.08,0,0,1,608,756.52Z" transform="translate(-68 -101)"/><path class="cls-6" d="M628.24,768.23l-7.64-4.42c-2.52-1.45-2.52-3.81,0-5.27l7.64-4.41a10.08,10.08,0,0,1,9.14,0l7.64,4.41c2.52,1.46,2.52,3.82,0,5.27l-7.64,4.42A10.15,10.15,0,0,1,628.24,768.23Z" transform="translate(-68 -101)"/><path class="cls-6" d="M647.82,779.53l-7.65-4.42c-2.52-1.45-2.52-3.81,0-5.27l7.65-4.41a10.06,10.06,0,0,1,9.13,0l7.64,4.41c2.52,1.46,2.52,3.82,0,5.27L657,779.53A10.13,10.13,0,0,1,647.82,779.53Z" transform="translate(-68 -101)"/><path class="cls-6" d="M668.09,791.23l-7.64-4.41c-2.53-1.46-2.53-3.82,0-5.28l7.64-4.41a10.13,10.13,0,0,1,9.13,0l7.64,4.41c2.53,1.46,2.53,3.82,0,5.28l-7.64,4.41A10.06,10.06,0,0,1,668.09,791.23Z" transform="translate(-68 -101)"/><path class="cls-6" d="M696.05,807.38l-14.63-8.45c-2.53-1.46-2.53-3.82,0-5.28l7.64-4.41a10.06,10.06,0,0,1,9.13,0l14.63,8.45c2.53,1.46,2.53,3.82,0,5.27l-7.64,4.42A10.13,10.13,0,0,1,696.05,807.38Z" transform="translate(-68 -101)"/><path class="cls-6" d="M457.69,691.54l-7.64-4.41c-2.53-1.46-2.53-3.82,0-5.28l7.64-4.41a10.13,10.13,0,0,1,9.13,0l7.64,4.41c2.53,1.46,2.53,3.82,0,5.28l-7.64,4.41A10.06,10.06,0,0,1,457.69,691.54Z" transform="translate(-68 -101)"/><path class="cls-6" d="M478,703.25l-7.64-4.42c-2.52-1.45-2.52-3.81,0-5.27l7.64-4.41a10.06,10.06,0,0,1,9.13,0l7.65,4.41c2.52,1.46,2.52,3.82,0,5.27l-7.65,4.42A10.13,10.13,0,0,1,478,703.25Z" transform="translate(-68 -101)"/><path class="cls-6" d="M497.53,714.55l-7.64-4.42c-2.52-1.45-2.52-3.81,0-5.27l7.64-4.41a10.08,10.08,0,0,1,9.14,0l7.64,4.41c2.52,1.46,2.52,3.82,0,5.27l-7.64,4.42A10.15,10.15,0,0,1,497.53,714.55Z" transform="translate(-68 -101)"/><path class="cls-6" d="M517.8,726.25l-7.64-4.41c-2.52-1.46-2.52-3.82,0-5.28l7.64-4.41a10.15,10.15,0,0,1,9.14,0l7.64,4.41c2.52,1.46,2.52,3.82,0,5.28l-7.64,4.41A10.08,10.08,0,0,1,517.8,726.25Z" transform="translate(-68 -101)"/><path class="cls-6" d="M538.07,738l-7.64-4.42c-2.52-1.45-2.52-3.81,0-5.27l7.64-4.41a10.08,10.08,0,0,1,9.14,0l7.64,4.41c2.52,1.46,2.52,3.82,0,5.27L547.21,738A10.15,10.15,0,0,1,538.07,738Z" transform="translate(-68 -101)"/><path class="cls-6" d="M558.34,749.66l-7.64-4.41c-2.52-1.46-2.52-3.82,0-5.28l7.64-4.41a10.15,10.15,0,0,1,9.14,0l7.64,4.41c2.52,1.46,2.52,3.82,0,5.28l-7.64,4.41A10.08,10.08,0,0,1,558.34,749.66Z" transform="translate(-68 -101)"/><path class="cls-6" d="M577.92,761l-7.65-4.41c-2.52-1.46-2.52-3.82,0-5.28l7.65-4.41a10.13,10.13,0,0,1,9.13,0l7.64,4.41c2.52,1.46,2.52,3.82,0,5.28L587.05,761A10.06,10.06,0,0,1,577.92,761Z" transform="translate(-68 -101)"/><path class="cls-6" d="M598.19,772.67l-7.64-4.42c-2.53-1.45-2.53-3.81,0-5.27l7.64-4.41a10.06,10.06,0,0,1,9.13,0L615,763c2.53,1.46,2.53,3.82,0,5.27l-7.64,4.42A10.13,10.13,0,0,1,598.19,772.67Z" transform="translate(-68 -101)"/><path class="cls-6" d="M617.06,783.56l-7.64-4.41c-2.52-1.46-2.52-3.82,0-5.27l7.64-4.42a10.13,10.13,0,0,1,9.13,0l7.65,4.42c2.52,1.45,2.52,3.81,0,5.27l-7.65,4.41A10.06,10.06,0,0,1,617.06,783.56Z" transform="translate(-68 -101)"/><path class="cls-6" d="M637.33,795.27l-7.64-4.41c-2.52-1.46-2.52-3.82,0-5.28l7.64-4.41a10.08,10.08,0,0,1,9.14,0l7.64,4.41c2.52,1.46,2.52,3.82,0,5.28l-7.64,4.41A10.15,10.15,0,0,1,637.33,795.27Z" transform="translate(-68 -101)"/><path class="cls-6" d="M656.9,806.57l-7.64-4.41c-2.52-1.46-2.52-3.82,0-5.28l7.64-4.41a10.08,10.08,0,0,1,9.14,0l7.64,4.41c2.52,1.46,2.52,3.82,0,5.28L666,806.57A10.15,10.15,0,0,1,656.9,806.57Z" transform="translate(-68 -101)"/><path class="cls-6" d="M677.17,818.27l-7.64-4.41c-2.52-1.46-2.52-3.82,0-5.27l7.64-4.42a10.15,10.15,0,0,1,9.14,0l7.64,4.42c2.52,1.45,2.52,3.81,0,5.27l-7.64,4.41A10.08,10.08,0,0,1,677.17,818.27Z" transform="translate(-68 -101)"/><path class="cls-6" d="M443.71,705.26l-7.64-4.41c-2.53-1.45-2.53-3.82,0-5.27l7.64-4.41a10.06,10.06,0,0,1,9.13,0l7.64,4.41c2.53,1.45,2.53,3.82,0,5.27l-7.64,4.41A10.06,10.06,0,0,1,443.71,705.26Z" transform="translate(-68 -101)"/><path class="cls-6" d="M464,717l-7.64-4.41c-2.52-1.46-2.52-3.82,0-5.28l7.64-4.41a10.06,10.06,0,0,1,9.13,0l7.65,4.41c2.52,1.46,2.52,3.82,0,5.28L473.11,717A10.13,10.13,0,0,1,464,717Z" transform="translate(-68 -101)"/><path class="cls-6" d="M484.25,728.67l-7.64-4.41c-2.52-1.46-2.52-3.82,0-5.27l7.64-4.42a10.15,10.15,0,0,1,9.14,0L501,719c2.52,1.45,2.52,3.81,0,5.27l-7.64,4.41A10.08,10.08,0,0,1,484.25,728.67Z" transform="translate(-68 -101)"/><path class="cls-6" d="M504.52,740.38,496.88,736c-2.52-1.46-2.52-3.82,0-5.28l7.64-4.41a10.08,10.08,0,0,1,9.14,0l7.64,4.41c2.52,1.46,2.52,3.82,0,5.28l-7.64,4.41A10.15,10.15,0,0,1,504.52,740.38Z" transform="translate(-68 -101)"/><path class="cls-6" d="M524.09,751.68l-7.64-4.41c-2.52-1.46-2.52-3.82,0-5.28l7.64-4.41a10.08,10.08,0,0,1,9.14,0l7.64,4.41c2.52,1.46,2.52,3.82,0,5.28l-7.64,4.41A10.15,10.15,0,0,1,524.09,751.68Z" transform="translate(-68 -101)"/><path class="cls-6" d="M544.36,763.38,536.72,759c-2.52-1.46-2.52-3.82,0-5.27l7.64-4.42a10.15,10.15,0,0,1,9.14,0l7.64,4.42c2.52,1.45,2.52,3.81,0,5.27l-7.64,4.41A10.08,10.08,0,0,1,544.36,763.38Z" transform="translate(-68 -101)"/><path class="cls-6" d="M563.24,774.28l-7.64-4.41c-2.53-1.46-2.53-3.82,0-5.28l7.64-4.41a10.06,10.06,0,0,1,9.13,0l7.64,4.41c2.53,1.46,2.53,3.82,0,5.28l-7.64,4.41A10.06,10.06,0,0,1,563.24,774.28Z" transform="translate(-68 -101)"/><path class="cls-6" d="M583.51,786l-7.64-4.41c-2.53-1.45-2.53-3.82,0-5.27l7.64-4.41a10.06,10.06,0,0,1,9.13,0l7.64,4.41c2.53,1.45,2.53,3.82,0,5.27L592.64,786A10.06,10.06,0,0,1,583.51,786Z" transform="translate(-68 -101)"/><path class="cls-6" d="M603.08,797.29l-7.64-4.42c-2.52-1.45-2.52-3.81,0-5.27l7.64-4.41a10.06,10.06,0,0,1,9.13,0l7.65,4.41c2.52,1.46,2.52,3.82,0,5.27l-7.65,4.42A10.13,10.13,0,0,1,603.08,797.29Z" transform="translate(-68 -101)"/><path class="cls-6" d="M623.35,809l-7.64-4.41c-2.52-1.46-2.52-3.82,0-5.28l7.64-4.41a10.08,10.08,0,0,1,9.14,0l7.64,4.41c2.52,1.46,2.52,3.82,0,5.28L632.49,809A10.08,10.08,0,0,1,623.35,809Z" transform="translate(-68 -101)"/><path class="cls-6" d="M656.9,829.17l-23-13.29c-2.52-1.46-2.52-3.82,0-5.28l7.65-4.41a10.13,10.13,0,0,1,9.13,0l23,13.29c2.52,1.46,2.52,3.82,0,5.28L666,829.17A10.08,10.08,0,0,1,656.9,829.17Z" transform="translate(-68 -101)"/><path class="cls-6" d="M438.82,680.64,422.09,671c-2.53-1.46-2.53-3.82,0-5.28l7.64-4.41a10.06,10.06,0,0,1,9.13,0L455.59,671c2.52,1.45,2.52,3.82,0,5.27L448,680.64A10.06,10.06,0,0,1,438.82,680.64Z" transform="translate(-68 -101)"/><path class="cls-6" d="M424.84,695.17l-20.93-12.08c-2.52-1.45-2.52-3.81,0-5.27l7.64-4.41a10.08,10.08,0,0,1,9.14,0l20.92,12.08c2.52,1.45,2.52,3.82,0,5.27L434,695.17A10.06,10.06,0,0,1,424.84,695.17Z" transform="translate(-68 -101)"/><path class="cls-6" d="M560.44,797.69l-105.5-60.92c-2.52-1.45-2.52-3.82,0-5.27l7.64-4.41a10.08,10.08,0,0,1,9.14,0L577.22,788c2.52,1.46,2.52,3.82,0,5.28l-7.64,4.41A10.08,10.08,0,0,1,560.44,797.69Z" transform="translate(-68 -101)"/><path class="cls-6" d="M389.19,698.81l-7.64-4.42c-2.53-1.45-2.53-3.81,0-5.27l7.64-4.41a10.06,10.06,0,0,1,9.13,0l7.64,4.41c2.52,1.46,2.52,3.82,0,5.27l-7.64,4.42A10.13,10.13,0,0,1,389.19,698.81Z" transform="translate(-68 -101)"/><path class="cls-6" d="M409.46,710.51l-7.64-4.41c-2.53-1.46-2.53-3.82,0-5.28l7.64-4.41a10.13,10.13,0,0,1,9.13,0l7.64,4.41c2.53,1.46,2.53,3.82,0,5.28l-7.64,4.41A10.06,10.06,0,0,1,409.46,710.51Z" transform="translate(-68 -101)"/><path class="cls-6" d="M442.31,729.48,422.09,717.8c-2.53-1.45-2.53-3.81,0-5.27l7.64-4.41a10.06,10.06,0,0,1,9.13,0l20.23,11.67c2.52,1.46,2.52,3.82,0,5.28l-7.64,4.41A10.08,10.08,0,0,1,442.31,729.48Z" transform="translate(-68 -101)"/><path class="cls-6" d="M580.71,809.39,573.07,805c-2.52-1.46-2.52-3.82,0-5.27l7.64-4.42a10.15,10.15,0,0,1,9.14,0l7.64,4.42c2.52,1.45,2.52,3.81,0,5.27l-7.64,4.41A10.08,10.08,0,0,1,580.71,809.39Z" transform="translate(-68 -101)"/><path class="cls-6" d="M601,821.1l-7.64-4.41c-2.52-1.46-2.52-3.82,0-5.28L601,807a10.08,10.08,0,0,1,9.14,0l7.64,4.41c2.52,1.46,2.52,3.82,0,5.28l-7.64,4.41A10.15,10.15,0,0,1,601,821.1Z" transform="translate(-68 -101)"/><path class="cls-6" d="M634.11,829.44l-.57-.33c-2.5-1.45-2.5-3.79,0-5.24h0a10.06,10.06,0,0,1,9.07,0l.57.33c2.5,1.45,2.5,3.79,0,5.24h0A10.06,10.06,0,0,1,634.11,829.44Z" transform="translate(-68 -101)"/><path class="cls-6" d="M623.91,835.14l-.57-.33c-2.51-1.44-2.51-3.79,0-5.23h0a10,10,0,0,1,9.07,0l.57.32c2.5,1.45,2.5,3.79,0,5.24h0A10,10,0,0,1,623.91,835.14Z" transform="translate(-68 -101)"/><path class="cls-6" d="M636,842.1l-.57-.32c-2.51-1.45-2.51-3.8,0-5.24h0a10,10,0,0,1,9.07,0l.57.33c2.5,1.44,2.5,3.79,0,5.23h0A10,10,0,0,1,636,842.1Z" transform="translate(-68 -101)"/><path class="cls-6" d="M611.85,828.18l-.57-.33c-2.51-1.45-2.51-3.79,0-5.24h0a10.06,10.06,0,0,1,9.07,0l.57.33c2.5,1.45,2.5,3.79,0,5.24h0A10.06,10.06,0,0,1,611.85,828.18Z" transform="translate(-68 -101)"/><path class="cls-5" d="M521.23,377.32,954.06,627.2V357.68c0-6.41-4.5-14.21-10.06-17.42L531.29,102c-5.55-3.21-11.9,1.77-11.9,8.18Z" transform="translate(-68 -101)"/><polygon class="cls-3" points="886.06 526.2 453.23 276.32 453.22 349.27 886.06 599.14 886.06 526.2"/><polygon class="cls-7" points="461.03 14.11 873.59 252.32 873.59 515.59 459.94 274.1 461.03 14.11"/><path d="M530.8,119.29,935.65,353c1.86,1.08,4.08,4.91,4.08,7.06V608.88L530.79,372.81V119.29M524.41,103c-3.3,0-5.56,2.63-5.56,7.18V379.71L951.67,629.59V360.07c0-6.41-4.5-14.21-10.06-17.41L528.9,104.39a9.12,9.12,0,0,0-4.49-1.37Z" transform="translate(-68 -101)"/><polygon class="cls-8" points="883.67 528.59 450.83 278.71 450.83 351.66 883.67 601.53 883.67 528.59"/><polygon class="cls-3" points="886.06 599.14 883.67 601.53 883.67 597.76 886.06 599.14"/><polygon class="cls-9" points="589.06 480.77 679.74 532.81 722.12 508.27 631.98 456.24 589.06 480.77"/><polygon class="cls-10" points="688.13 403.34 647.32 379.77 647.33 127.75 688.14 151.31 688.13 403.34"/><polygon class="cls-10" points="768.6 445.24 727.79 421.68 727.8 169.66 768.61 193.22 768.6 445.24"/><path class="cls-11" d="M772.32,805.26l0-18.68a1.6,1.6,0,0,0,.93,1.31l0,18.67A1.57,1.57,0,0,1,772.32,805.26Z" transform="translate(-68 -101)"/><path class="cls-11" d="M911.18,807.2a1.37,1.37,0,0,1,0,2.59l-47.58,27.65a5,5,0,0,1-4.47,0L773.3,787.89c-1.23-.72-1.24-1.88,0-2.59l47.59-27.66a5,5,0,0,1,4.47,0Z" transform="translate(-68 -101)"/><path class="cls-4" d="M863.61,837.44a5,5,0,0,1-4.47,0L773.3,787.89l0,18.67,85.83,49.56a5,5,0,0,0,4.47,0l47.59-27.65.05-18.68Z" transform="translate(-68 -101)"/><text class="cls-12" transform="matrix(0.87, 0.5, -0.87, 0.5, 744.92, 668.43)">Lorem <tspan x="0" y="28.01">ipsum</tspan></text><path class="cls-13" d="M804.86,756.52a5.35,5.35,0,0,1,4.28-2.22l59.33,2.63c1.53.07,2.11,1.18,1.28,2.47l-57.58,89.7a5.37,5.37,0,0,1-4.29,2.22l-59.33-2.63c-1.53-.07-2.1-1.18-1.27-2.47Z" transform="translate(-68 -101)"/><text class="cls-14" transform="matrix(0.47, -0.88, 1, -0.04, 711.2, 732.44)">Lorem<tspan x="0" y="34.16">ipsum</tspan></text><path class="cls-15" d="M68,545.84,437.51,332.51V103.06L68,316.38ZM429.88,328.1,75.63,532.62V320.79L429.88,116.27Z" transform="translate(-68 -101)"/><polygon class="cls-16" points="234.18 138.99 326.08 85.93 326.08 71.77 234.18 124.83 234.18 138.99"/><polygon class="cls-17" points="142.27 213.28 280.13 133.69 280.13 119.53 142.27 199.11 142.27 213.28"/><polygon class="cls-18" points="188.33 207.91 280.13 154.92 280.13 140.75 188.33 193.75 188.33 207.91"/><polygon class="cls-19" points="142.27 255.73 326.08 149.62 326.08 135.45 142.27 241.57 142.27 255.73"/><polygon class="cls-20" points="50.37 330.02 188.22 250.43 188.22 236.27 50.37 315.85 50.37 330.02"/><polygon class="cls-21" points="142.27 298.19 188.33 271.6 188.33 257.43 142.27 284.02 142.27 298.19"/><polygon class="cls-22" points="50.37 372.48 142.27 319.42 142.27 305.25 50.37 358.31 50.37 372.48"/><polygon class="cls-23" points="325.5 226.1 326.65 225.44 326.65 58.96 325.5 59.63 325.5 226.1"/><polygon class="cls-23" points="279.55 252.63 280.7 251.97 280.7 85.49 279.55 86.16 279.55 252.63"/><polygon class="cls-23" points="233.6 279.16 234.75 278.5 234.75 112.02 233.6 112.69 233.6 279.16"/><polygon class="cls-23" points="187.65 305.69 188.8 305.03 188.8 138.55 187.65 139.22 187.65 305.69"/><polygon class="cls-23" points="141.7 332.22 142.85 331.56 142.85 165.08 141.7 165.74 141.7 332.22"/><polygon class="cls-23" points="95.75 358.75 96.9 358.09 96.89 191.61 95.75 192.27 95.75 358.75"/><polygon class="cls-23" points="49.8 385.28 50.95 384.62 50.94 218.14 49.8 218.8 49.8 385.28"/><polygon class="cls-23" points="44.27 229.85 332.63 63.37 332.63 62.05 44.27 228.53 44.27 229.85"/><polygon class="cls-23" points="44.28 381.02 332.63 214.54 332.63 213.22 44.28 379.7 44.28 381.02"/><g class="cls-1"><ellipse class="cls-24" cx="500.56" cy="614.4" rx="20.68" ry="11.98" transform="matrix(1, 0, 0, 1, -69.74, -99.58)"/><path class="cls-24" d="M521.24,614.34c0-3-1.92-6-5.76-8.26-7.91-4.76-21-4.89-29.24-.29-4.24,2.36-6.37,5.52-6.36,8.67v-4.2c0-3.16,2.12-6.32,6.36-8.68,8.24-4.6,21.33-4.46,29.24.3,3.84,2.31,5.75,5.28,5.76,8.26C521.23,611.4,521.23,613.08,521.24,614.34Z" transform="translate(-68 -101)"/><path class="cls-25" d="M485.63,618.52c-7.91-4.76-7.64-12.34.6-16.94s21.33-4.46,29.24.3,7.64,12.34-.61,16.93S493.53,623.28,485.63,618.52Zm1.28-.72c7.22,4.35,19.19,4.47,26.73.27s7.78-11.13.55-15.48-19.2-4.47-26.73-.27-7.78,11.13-.55,15.48Z" transform="translate(-68 -101)"/><path class="cls-24" d="M514.78,603l-.59-.37c-7.23-4.35-19.2-4.47-26.73-.27-.42.23-.82.48-1.19.73q2.44-1.65,4.91-3.28c.24-.17.5-.32.78-.48,4.93-2.75,12.77-2.67,17.51.18l.39.24Z" transform="translate(-68 -101)"/><path class="cls-26" d="M514.78,603l-4.92-3.25c4.33,2.86,4,7.23-.75,9.9-4.94,2.76-12.78,2.68-17.52-.17-4.47-2.69-4.57-6.89-.41-9.67q-2.46,1.63-4.91,3.28c-6.35,4.23-6.19,10.64.64,14.75,7.22,4.35,19.19,4.47,26.73.27C521,614,521.4,607.33,514.78,603Z" transform="translate(-68 -101)"/><path class="cls-24" d="M512.92,604.42c0-1.78-1.15-3.57-3.45-4.95-4.74-2.85-12.58-2.93-17.51-.18-2.54,1.42-3.82,3.31-3.82,5.2l0-7.3c0-1.89,1.27-3.78,3.81-5.2,4.94-2.75,12.78-2.67,17.52.18,2.3,1.38,3.44,3.17,3.45,5C512.9,599.31,512.91,602.23,512.92,604.42Z" transform="translate(-68 -101)"/><path class="cls-26" d="M521.23,610.14c0,3.15-2.12,6.31-6.37,8.67-8.24,4.6-21.33,4.47-29.23-.29-3.84-2.31-5.75-5.29-5.76-8.26v4.2c0,3,1.92,5.95,5.76,8.26,7.9,4.76,21,4.89,29.24.3,4.24-2.37,6.37-5.52,6.36-8.68Z" transform="translate(-68 -101)"/><path class="cls-27" d="M512.9,597.12c0,1.89-1.27,3.78-3.81,5.19-4.94,2.76-12.78,2.68-17.52-.17-2.3-1.39-3.44-3.17-3.45-4.95l0,7.3c0,1.78,1.15,3.56,3.45,5,4.74,2.85,12.58,2.93,17.52.17,2.54-1.41,3.81-3.3,3.81-5.19Z" transform="translate(-68 -101)"/><path class="cls-25" d="M491.57,602.14c-4.73-2.85-4.57-7.39.36-10.15s12.78-2.67,17.52.18,4.57,7.39-.36,10.14S496.31,605,491.57,602.14Z" transform="translate(-68 -101)"/></g><path class="cls-28" d="M511.94,593.8v-4.59l0-4.6c0-1,0-1.93,0-2.81a17.19,17.19,0,0,0-5.11-12.13l-3-2.89a2.71,2.71,0,0,1,0-2.91l3-2.91a16.87,16.87,0,0,0,5-12.16s0-4.65,0-4.65c0-1.42,0-2.88,0-4.32v-1.19c0-1.64,0-3.22,0-4.65,0-1.66-1.07-3.31-3.2-4.59-4.39-2.65-11.67-2.72-16.25-.17-2.36,1.32-3.54,3.07-3.53,4.83l0,14.8a17.53,17.53,0,0,0,1.33,6.61c1.57,3.72,3.57,5.33,6.79,8.41a2.59,2.59,0,0,1-.29,3.21c-3.14,3-7.61,6.58-7.74,14.77l0,14.82c0,2,1.51,3.57,3.2,4.59,4.4,2.64,11.67,2.72,16.25.16,1.84-1,3.54-2.72,3.54-4.82Z" transform="translate(-68 -101)"/><path class="cls-29" d="M511.09,596.61c0,2.16-2.19,3.62-3.14,4.15a15.91,15.91,0,0,1-7.62,1.77,15.71,15.71,0,0,1-7.86-1.92c-.85-.51-2.82-1.91-2.83-3.94v-4l0-10.85c.12-7.21,3.78-10.68,6.73-13.48l.77-.74a3.23,3.23,0,0,0,.95-2.37,2.68,2.68,0,0,0-.66-1.94q-.54-.52-1.05-1c-2.55-2.42-4.23-4-5.56-7.17a16.64,16.64,0,0,1-1.27-6.32l-.05-14.8c0-1.54,1.12-3,3.15-4.15a15.93,15.93,0,0,1,7.61-1.77,15.75,15.75,0,0,1,7.87,1.92c1.82,1.1,2.82,2.5,2.82,3.94l0,14.79a16.11,16.11,0,0,1-4.81,11.63l-3,2.9a3.42,3.42,0,0,0,0,4l3,2.89a16.06,16.06,0,0,1,4.87,11.6l0,9.57Z" transform="translate(-68 -101)"/><path class="cls-30" d="M496.87,561.78c.34.31.68.64,1.06,1,.58.56,1.44,1.29,1.43,2.3,0,.68.95,13.54.92,14.5l.51-11.53c.34-2.73,0-3.74,1.84-5.3l3-2.89a14.8,14.8,0,0,0,3.21-4l-17.29-.48C493,558.24,494.48,559.52,496.87,561.78Z" transform="translate(-68 -101)"/><path class="cls-31" d="M500.08,559.66a13.16,13.16,0,0,1-6.47-1.94c-1.52-1-2.34-2.24-2.32-3.46s.94-2.45,2.58-3.3a12.54,12.54,0,0,1,6.27-1.16,13.19,13.19,0,0,1,6.47,1.94c1.52,1,2.34,2.24,2.32,3.46s-.94,2.44-2.58,3.29A12.43,12.43,0,0,1,500.08,559.66Z" transform="translate(-68 -101)"/><path class="cls-30" d="M510.4,596.18c0,2-2,3.36-2.91,3.85a14.77,14.77,0,0,1-7.07,1.64,14.49,14.49,0,0,1-7.29-1.79c-.79-.47-2.62-1.77-2.63-3.65v-5.6c0,1.34.92,2.65,2.62,3.68a14.39,14.39,0,0,0,7.29,1.78,14.77,14.77,0,0,0,7.07-1.64c1.77-1,2.79-2.26,2.91-3.59Z" transform="translate(-68 -101)"/><path class="cls-31" d="M509,587.88l-7.93-8a.86.86,0,0,0-1.37,0l-7.61,7.76a4,4,0,0,0-1.6,2.89c0,1.37.92,2.68,2.62,3.71a14.39,14.39,0,0,0,7.29,1.78,14.77,14.77,0,0,0,7.07-1.64c1.77-1,2.79-2.26,2.91-3.59v-.2A3.7,3.7,0,0,0,509,587.88Z" transform="translate(-68 -101)"/><path class="cls-32" d="M494.17,595.79l0-12.07c.08-7.26,2.55-10.71,4.72-13.75l.61-.85a6.76,6.76,0,0,0,1.07-3.86,6.11,6.11,0,0,0-.84-3.37c-.3-.41-.56-.79-.82-1.14-1.88-2.61-3-4.19-3.94-7.39a23.82,23.82,0,0,1-.87-6.41l0-16.06c-.24.11-.47.23-.7.36-1.49.83-2.35,1.85-2.35,2.8l0,14.77a15.13,15.13,0,0,0,1.16,5.76c1.21,2.87,2.71,4.29,5.19,6.63l1.08,1a4.21,4.21,0,0,1,1.12,3,4.77,4.77,0,0,1-1.42,3.47l-.8.76c-2.87,2.74-6.13,5.83-6.23,12.36l0,10.84v4c0,1.32,1.74,2.41,2.09,2.62s.6.33.92.48Z" transform="translate(-68 -101)"/><ellipse class="cls-33" cx="500.28" cy="534.02" rx="11.49" ry="6.66" transform="translate(-69.51 -99.58) rotate(-0.16)"/><g class="cls-1"><ellipse class="cls-34" cx="500.15" cy="535.1" rx="12.39" ry="7.17" transform="translate(-69.51 -99.58) rotate(-0.16)"/><path class="cls-34" d="M512.54,535.06c0-1.78-1.15-3.56-3.45-4.94-4.73-2.86-12.58-2.93-17.51-.18-2.54,1.41-3.82,3.31-3.81,5.2l0-7.3c0-1.89,1.27-3.79,3.81-5.2,4.93-2.75,12.77-2.68,17.51.18,2.3,1.38,3.44,3.16,3.45,4.94C512.53,530,512.53,532.87,512.54,535.06Z" transform="translate(-68 -101)"/><path class="cls-26" d="M512.52,527.76c0,1.89-1.27,3.78-3.81,5.2-4.94,2.75-12.78,2.67-17.52-.18-2.29-1.38-3.44-3.16-3.44-4.94l0,7.3c0,1.78,1.15,3.56,3.44,4.94,4.74,2.85,12.58,2.93,17.52.18,2.54-1.42,3.82-3.31,3.81-5.2Z" transform="translate(-68 -101)"/><path class="cls-34" d="M509.49,532.48c4.16-2.77,4-7-.42-9.66-4.74-2.86-12.58-2.93-17.51-.18s-5.09,7-.75,9.9l-4.93-3.25c-6.61-4.36-6.17-11,1.15-15.11,7.53-4.2,19.5-4.08,26.73.27,6.82,4.11,7,10.52.64,14.76Z" transform="translate(-68 -101)"/><path class="cls-34" d="M490.81,532.54l-4.93-3.25c.19.13.39.25.59.37l4.72,3.12Z" transform="translate(-68 -101)"/><path class="cls-27" d="M514.4,529.21l-4.91,3.27q-.37.25-.78.48c-4.94,2.75-12.78,2.67-17.52-.18l-4.72-3.12c7.23,4.35,19.2,4.47,26.73.27Q513.83,529.59,514.4,529.21Z" transform="translate(-68 -101)"/><path class="cls-34" d="M485.19,530.38c-7.9-4.76-7.63-12.34.61-16.94s21.33-4.46,29.24.3,7.63,12.34-.61,16.93S493.1,535.14,485.19,530.38Zm1.28-.72c7.23,4.35,19.2,4.47,26.73.27s7.79-11.13.56-15.48-19.2-4.47-26.73-.27-7.78,11.13-.56,15.48Z" transform="translate(-68 -101)"/><path class="cls-34" d="M520.8,522c0-3-1.92-6-5.76-8.26-7.91-4.76-21-4.9-29.24-.3-4.24,2.37-6.37,5.52-6.36,8.68l0-4.21c0-3.15,2.13-6.31,6.37-8.68,8.24-4.59,21.33-4.46,29.24.3,3.83,2.31,5.75,5.28,5.75,8.26C520.79,519.05,520.79,520.73,520.8,522Z" transform="translate(-68 -101)"/><path class="cls-26" d="M520.78,517.79c0,3.16-2.12,6.31-6.36,8.68-8.24,4.59-21.33,4.46-29.24-.3-3.84-2.31-5.75-5.28-5.76-8.26l0,4.21c0,3,1.92,6,5.75,8.26,7.91,4.76,21,4.89,29.24.29,4.24-2.36,6.37-5.52,6.37-8.67Z" transform="translate(-68 -101)"/><ellipse class="cls-25" cx="500.1" cy="517.85" rx="20.68" ry="11.98" transform="translate(-69.47 -99.58) rotate(-0.16)"/></g><path class="cls-35" d="M377.05,813.48a13,13,0,0,1,.95,7.22c-.77,2.3-3.61,5.44-7.35,6.71-4.33,3.28-7.13,8.42-12.6,10-6.26,1.86-10.05-.58-9.56-4.31.86-6.43,9.22-8.81,12.68-16.24l3.14-7.43h11.21Z" transform="translate(-68 -101)"/><path class="cls-35" d="M418.85,837.91c1.77,2.44,2,10.14,1.07,11.54-4.48,4.95-10.62,14.88-22.89,14.17-5-.92-6.34-3.34-4.47-7.11,2-4,9.34-7.88,12-15l1.13-6.15Z" transform="translate(-68 -101)"/><path class="cls-36" d="M356.52,775.23c1.36,17.08,5.64,30.4,5.21,38.12-.27,3.71,4.38,5.12,8.72,4.53,3.61-.48,7-2.36,7.22-5.43-4.3-19.12,3.17-32.93-3.62-43.22,7.19-9,13.92-26.46,26.51-43.88l-18-21.9L379.71,700c-12.4,14.7-16.63,37.27-22.5,60.45A24.42,24.42,0,0,0,356.52,775.23Z" transform="translate(-68 -101)"/><path class="cls-37" d="M370.45,817.88c3.61-.48,7-2.36,7.22-5.43-4.3-19.12,3.17-32.93-3.62-43.22,7.19-9,13.92-26.46,26.51-43.88l-18-21.9c4.72,20.09-2.26,43.47-15,65.56C374.47,783.26,374,796.84,370.45,817.88Z" transform="translate(-68 -101)"/><path class="cls-38" d="M397.8,729.2c-2.95,21.46-4.71,41.2-1.81,54.28a17.91,17.91,0,0,0,3.17,10.86c4.6,13.36,5.07,28,5.88,44.11.6,4.14,5.18,5,9.15,3.95,3.18-.82,6-2.85,6-5.31-.08-21.49,4.75-39-4.53-51.12-1-2.39-2-2.8-.9-5.09,4.54-9,8.84-35,13.57-58.47,3.17-10.51.34-22.39-9.88-24.65l-6.2,1.23-29.61,5.89C385.06,713.9,388.58,722.77,397.8,729.2Z" transform="translate(-68 -101)"/><path class="cls-37" d="M407.3,782.58c9.77,17.82,12.42,37.66,6.89,59.82,3.18-.82,6-2.85,6-5.31-.08-21.49,4.75-39-4.53-51.12-1-2.39-2-2.8-.9-5.09,4.54-9,8.84-35,13.57-58.47,3.17-10.51.34-22.39-9.88-24.65l-6.2,1.23-9.12,13.52c9.71-2.43,13.37,3.16,15.32,11C420.46,741.7,414.4,762,407.3,782.58Z" transform="translate(-68 -101)"/><path class="cls-39" d="M369.08,646.58c-13.33,2-28,2-43.54.51-6.45-1.58-4.52-5.53-3.4-10.27,5.22-7.62,20.12-11.63,35.06-15.63l1,5.2-8.93,6.34,16.06-2.2Z" transform="translate(-68 -101)"/><polygon class="cls-40" points="281.29 531.73 272.88 537.84 295.99 531.73 294.21 529.96 281.29 531.73"/><path class="cls-35" d="M387.27,618.51s10.08-3.54,17.09,5.28,4.75,17.45,4.75,17.45l-1.58,9-9.16.9-13-13.12,1.91-18.77Z" transform="translate(-68 -101)"/><path class="cls-41" d="M362.21,678.86c1.14,7.14,9,8.79,14.4,6.91,0,0,1.94,2.87,2.35,8.52a48.58,48.58,0,0,1-.41,6.41c1.49,4,4.69,9,8.8,11.18a9.72,9.72,0,0,0,2.92,1c11.23,1.87,23-1.47,30.38-14.94,0,0-5.27-3.42-5.58-7.69-.66-9.1,2.64-16.35,3.5-22.86a15.12,15.12,0,0,0-1.2-9c-7.69-15.5-25.76-23.65-43.06-27.87l-8.47,17C367.57,665.87,361,671.31,362.21,678.86Z" transform="translate(-68 -101)"/><path class="cls-42" d="M389.1,634.17l5.54,4.72c7.57,7.26-7,22.41-14.31,15l-9.78-10.95Z" transform="translate(-68 -101)"/><path class="cls-43" d="M391.85,635s-5.05,21-16.67,20.43-13.34-23.83-13.34-23.83c.08-9.91,5.25-15.88,18.4-15.68C389.16,617.16,393.58,623,391.85,635Z" transform="translate(-68 -101)"/><path class="cls-35" d="M389.21,641,384.93,643a7,7,0,0,1-4.47.57c-6.43-1.29-14.4-5.49-18.62-7.9q-3.4-19,15.83-20.51c13.07,0,17.81,7.69,14.55,22.73Z" transform="translate(-68 -101)"/><path class="cls-43" d="M389.28,637.63a1.58,1.58,0,0,1,3,1,6.74,6.74,0,0,1-2.41,5.8,2.39,2.39,0,0,1-1,.55,1.14,1.14,0,0,1-1.08-.27,1.55,1.55,0,0,1-.35-.83A7.21,7.21,0,0,1,389.28,637.63Z" transform="translate(-68 -101)"/><path class="cls-39" d="M388.36,642l2.32-6.27v-5.18l-1.7-4.85c-.53-1.51-2.22-1.4-1.71.19l.86,4.31L386,624.42l-2.4-4L380.27,617c-1.28-1.36-3-.84-2,1l-.65-.95c-1-1.33-3-.34-2,1.19l.38.66c-1.17-1.24-2.8-.36-1.78,1.09l.72,1.06c-1.09-1-1.91.66-1.05,1.87l1.54,2.24,1,3a36.3,36.3,0,0,0,1.41,9.22,16.49,16.49,0,0,0,4.58,6l1,3.16s5-1.86,5.15-1.86A14.84,14.84,0,0,0,388.36,642Z" transform="translate(-68 -101)"/><path class="cls-44" d="M362.21,678.86c1.14,7.14,9,8.79,14.4,6.91,0,0,1.94,2.87,2.35,8.52a48.58,48.58,0,0,1-.41,6.41c1.57,4.18,4.42,8.95,8.8,11.18a11.08,11.08,0,0,0,2.43.92,3.89,3.89,0,0,0,.49.12c11.23,1.87,23-1.47,30.38-14.94,0,0-5.27-3.42-5.58-7.69-.66-9.1,2.64-16.35,3.5-22.86L405,673.71l-1.57,9.36c-1,9.11-5.19,14.2-14.26,13.1-6.52-1.3-9.12-7.77-9.05-14A12.74,12.74,0,0,1,362.21,678.86Z" transform="translate(-68 -101)"/><path class="cls-39" d="M417,670.51a107.27,107.27,0,0,1-17.34,15.34c-2.78,2-7.47,3.09-9.92,1.88-7-4.43-5.88-26.85-7.11-44,1.2-2.75,3.55-3.39,6-2.46l8.1,27.55,5.92-5.49C411.93,650.33,422.31,662.25,417,670.51Z" transform="translate(-68 -101)"/><path class="cls-39" d="M356.71,625.38c.06,1.33,1.61,1.31,3.32,1.13a21.5,21.5,0,0,0,6.33-5.32L367,620l4.07-1.35c.74-.27,1.22-.55.91-.86l2.56-1c.76-.37,1.06-.79.52-1.28l2.76-.3c.08-.36-.16-.62-.59-.83l-8.72.83-6.49,2.61-4.86,3.38Z" transform="translate(-68 -101)"/><polygon class="cls-6" points="581.53 221.51 581.44 250.9 574 246.6 564.45 224.94 564.41 241.07 556.99 236.78 557.07 207.38 564.44 211.64 574.03 233.46 574.08 217.21 581.53 221.51"/><path class="cls-6" d="M676.82,341.71a25.45,25.45,0,0,1,3.39,13c0,3.44-.49,6-1.52,7.59a5.22,5.22,0,0,1-4.38,2.59c-1.91.14-4.27-.61-7.11-2.25a28.08,28.08,0,0,1-7.14-5.7,26.06,26.06,0,0,1-4.6-7.68,25.54,25.54,0,0,1-1.71-9.59c0-4.8,1.17-7.86,3.51-9.19s5.56-.81,9.71,1.59A26.49,26.49,0,0,1,676.82,341.71Zm-5.92,14.35c.94-.72,1.43-2.72,1.44-6a14.81,14.81,0,0,0-1.46-6.91A10.19,10.19,0,0,0,667,339c-1.61-.93-2.87-1-3.86-.29s-1.46,2.61-1.47,5.6a15.6,15.6,0,0,0,1.43,7.24,10,10,0,0,0,3.91,4.19c1.71,1,3,1.14,3.94.37" transform="translate(-68 -101)"/><polygon class="cls-6" points="636.66 253.34 636.58 282.74 628.67 278.17 628.76 248.78 636.66 253.34"/><polygon class="cls-6" points="671.01 273.17 670.92 302.56 664.47 298.84 664.53 276.43 659.48 295.96 653.62 292.57 648.7 267.29 648.63 289.7 642.18 285.97 642.26 256.57 652.63 262.56 656.6 282.76 660.64 267.18 671.01 273.17"/><path class="cls-6" d="M759.72,386.12l9.53,34.95L761,416.29l-1.27-5.6-9-5.18-1.24,4.15L741.41,405l9.68-23.86Zm-7.26,14,5.62,3.24-2.78-12.18-2.84,8.94" transform="translate(-68 -101)"/><path class="cls-6" d="M784.63,400a31.31,31.31,0,0,1,6.35,4.56,18.55,18.55,0,0,1,3.47,4.75,22.45,22.45,0,0,1,2.08,5.89l-7.64-2.84a9,9,0,0,0-4.44-6c-1.74-1-3.11-1.12-4.16-.34s-1.53,2.69-1.54,5.68a16.46,16.46,0,0,0,1.53,7.73,11.18,11.18,0,0,0,4.34,4.54,9.11,9.11,0,0,0,2.54,1,9.58,9.58,0,0,0,2.77.09v-2.77l-5.31-3.06,0-6.13,12.21,7,0,12.53a15.28,15.28,0,0,1-6.2.18,23.07,23.07,0,0,1-6.41-2.71,27.11,27.11,0,0,1-7.41-6.07,25,25,0,0,1-4.43-7.86,27,27,0,0,1-1.56-9c0-3.2.58-5.65,1.74-7.35a5.59,5.59,0,0,1,5.08-2.5C779.38,397.44,781.71,398.33,784.63,400Z" transform="translate(-68 -101)"/><polygon class="cls-6" points="754.75 321.52 754.74 327.8 741.47 320.14 741.46 324.82 753.76 331.92 753.74 337.89 741.44 330.79 741.43 336.61 755.06 344.48 755.04 351.13 733.48 338.68 733.56 309.28 754.75 321.52"/></g></g></svg>