<svg id="レイヤー_1" data-name="レイヤー 1" xmlns="http://www.w3.org/2000/svg" viewBox="0 0 846.29 914.22"><defs><style>.cls-1{fill:#ffdda8;}.cls-2{fill:#bc7c46;}.cls-3{fill:#dda866;}.cls-4{fill:#4f2e16;}.cls-5{fill:#f9c98a;}.cls-6{fill:#9b7451;}.cls-7{fill:#caaf8f;}.cls-8{fill:#e5e0dc;}.cls-9{fill:#b2aeab;}</style></defs><path class="cls-1" d="M753.58,217.72l-57.81-33.43L510,77,337.11,176.6l-28.55,16.49-2.9,1.77L279.41,210,91.28,318.41,261,416.57l17.06,9.86,3,1.76,27.52,15.88L336,460,519,565.7,706,457.79l27.42-15.85,2.9-1.76,27.6-15.91L937.38,324.18l.19-.22Z" transform="translate(-91.28 -77)"/><polygon class="cls-2" points="427.8 488.56 427.65 914.22 244.76 809.43 244.04 808.99 211.76 790.5 200.88 784.3 186.78 776.25 169.71 766.48 0 669.15 0.14 241.46 186.89 349.39 201.03 357.56 211.87 363.87 244.89 382.91 427.8 488.56"/><path class="cls-3" d="M763.69,424.26l-15,8.69-10.84,6.29-2.21,1.3-2.8,1.64-27.08,15.56L519.09,565.56l-.16,425.66L705.64,884.14l32.06-18.35,10.89-6.33,15-8.57,173.81-99.6.12-427.16Z" transform="translate(-91.28 -77)"/><polygon class="cls-4" points="464.08 823.79 461.21 825.51 461.22 775.66 464.08 773.97 464.08 823.79"/><polygon class="cls-4" points="474.31 779.04 472.26 782.48 462.67 776.07 453.08 793.6 450.94 792.54 462.67 771.27 474.31 779.04"/><polygon class="cls-4" points="492.71 807.28 489.85 808.98 489.86 759.13 492.73 757.49 492.71 807.28"/><polygon class="cls-4" points="503 762.49 500.87 766 491.33 759.56 481.68 777.07 479.55 776.02 491.33 754.72 503 762.49"/><path class="cls-4" d="M595,879.62,541.5,910.49c-.78.44-1.38.09-1.38-.86a3.1,3.1,0,0,1,1.37-2.48l53.5-30.8c.77-.5,1.42-.13,1.41.83A3.17,3.17,0,0,1,595,879.62Z" transform="translate(-91.28 -77)"/><path class="cls-4" d="M594.54,893.12,542,923.45c-5.57,3.21-10.09.63-10.09-5.8l0-60.65c0-6.39,4.52-14.19,10.1-17.35l52.54-30.35c5.49-3.16,10-.58,10,5.81v60.68C604.51,882.17,600,889.92,594.54,893.12ZM542,843a15.85,15.85,0,0,0-7.22,12.41l0,60.65c0,4.57,3.23,6.42,7.21,4.16l52.54-30.36c3.91-2.27,7.14-7.82,7.08-12.4l.06-60.62c.06-4.61-3.21-6.47-7.11-4.17Z" transform="translate(-91.28 -77)"/><path class="cls-4" d="M687.32,840.37l-54,31.2c-5.68,3.29-10.29.61-10.29-5.94l0-62.4c0-6.57,4.61-14.59,10.29-17.88l54.07-31.16c5.66-3.26,10.23-.61,10.23,5.93v62.41C697.58,829.1,693,837.09,687.32,840.37Zm-54-51.57c-4.11,2.31-7.36,8-7.36,12.72l0,62.43c0,4.64,3.28,6.58,7.39,4.25L687.36,837c4-2.33,7.36-8,7.36-12.74V761.83c0-4.69-3.34-6.62-7.36-4.24Z" transform="translate(-91.28 -77)"/><path class="cls-4" d="M660.31,839c-.87.44-1.58.07-1.58-.91V793.44a3.3,3.3,0,0,1,1.59-2.55c.77-.48,1.4,0,1.41.82v44.73A3.4,3.4,0,0,1,660.31,839Z" transform="translate(-91.28 -77)"/><path class="cls-4" d="M667,835.1l-13.38,7.71c-.79.53-1.5.13-1.51-.8a3.22,3.22,0,0,1,1.51-2.56L667,831.72c.81-.49,1.51-.11,1.49.86A3.32,3.32,0,0,1,667,835.1Z" transform="translate(-91.28 -77)"/><path class="cls-4" d="M674.53,778.57v20.9c.07,5.58-3.95,12.5-8.82,15.27l-10.84,6.2c-4.85,2.86-8.79.56-8.79-5.06V795l5.35-3.1,0,22.37c0,.9.62,1.31,1.41.83a3.31,3.31,0,0,0,1.51-2.58V790.17Z" transform="translate(-91.28 -77)"/><path class="cls-5" d="M509.91,83.48,102.63,318.55,519,557.31,926.22,324Z" transform="translate(-91.28 -77)"/><polygon class="cls-2" points="846.13 251.45 846.13 254.75 427.69 496.17 427.69 492.83 846.13 251.45"/><polygon class="cls-2" points="644.94 363.22 642.1 364.94 214.38 117.85 217.26 116.15 644.94 363.22"/><polygon class="cls-2" points="644.38 363.62 644.35 370.49 641.52 370.48 641.51 365.21 644.38 363.62"/><polygon class="cls-6" points="672.5 346.96 672.34 773.91 614.43 807.14 614.53 380.41 672.5 346.96"/><polygon class="cls-7" points="672.59 347.27 644.98 363.17 642.09 364.94 614.66 380.79 188.13 132.99 214.38 117.85 217.27 116.09 245.82 99.59 672.59 347.27"/><polygon class="cls-6" points="244.88 382.61 244.74 809.44 243.99 809 186.69 776.25 186.85 349.1 244.88 382.61"/><polygon class="cls-7" points="662.28 140.69 244.71 383.01 217.32 367.01 214.38 365.28 189.85 351.16 186.78 349.41 537.72 145.96 564.14 130.65 604.49 107.32 626.97 120.24 641.61 128.83 662.28 140.69"/><polygon class="cls-8" points="823.55 413.12 702.65 482.87 702.66 378.95 823.58 309.22 823.55 413.12"/><polygon class="cls-4" points="812.03 340.37 714.13 396.87 714.13 385.22 812.03 328.74 812.03 340.37"/><polygon class="cls-9" points="812.03 361.26 714.13 417.76 714.13 412.62 812.03 356.18 812.03 361.26"/><polygon class="cls-9" points="812.03 374.95 714.12 431.43 714.12 426.3 812.03 369.81 812.03 374.95"/><polygon class="cls-9" points="812.03 389.62 714.12 446.11 714.12 440.98 812.03 384.49 812.03 389.62"/><polygon class="cls-9" points="812.03 403.31 714.12 459.78 714.12 454.64 812.02 398.15 812.03 403.31"/></svg>