<svg id="レイヤー_1" data-name="レイヤー 1" xmlns="http://www.w3.org/2000/svg" viewBox="0 0 890.58 997.97"><defs><style>.cls-1{fill:#f9e8b0;}.cls-2{fill:#e8d295;}.cls-3{fill:#d7740e;}.cls-4{fill:#c95b00;}.cls-5{fill:#8dce1c;}.cls-6{isolation:isolate;}.cls-7{fill:#c3ea78;}.cls-8{fill:#efa10b;}.cls-9{fill:#ffdb4e;}.cls-10{fill:#aa1a00;}.cls-11{fill:#e56741;}.cls-12{fill:#891000;}.cls-13{fill:#781e00;}.cls-14{fill:#a82d01;}.cls-15{fill:#f4be8f;}.cls-16{fill:#681600;}.cls-17{fill:#304903;}.cls-18{fill:#a8c178;}.cls-19{fill:#406508;}.cls-20{fill:#bfdb91;}</style></defs><path class="cls-1" d="M900.9,619.31c41.56,24,41.21,63.23.41,86.9-26.58,15.55-66,21.49-103.59,15.55L785,724,514.54,881.16c-18.48,10.74-48.56,10.74-67.14,0L108.72,685.6c-18.57-10.7-18.72-28.18-.18-38.88L378.93,489.54l3.35-7.66c-9.87-21.45-.25-44.52,26.41-60.06,40.81-23.71,109-23.71,150.18,0Z" transform="translate(-68)"/><path class="cls-2" d="M452.55,740.68c10.18,5.87,26.18,5.87,36.07.11s10.05-15.14-.11-21c-9.94-5.76-26.19-5.65-36.07.11s-9.81,15,.11,20.74Z" transform="translate(-68)"/><path class="cls-2" d="M538.05,562c10.18,5.86,26.18,5.86,36.07.1s10-15.13-.11-21c-9.93-5.76-26.19-5.64-36.07.11s-9.81,15,.11,20.75Z" transform="translate(-68)"/><path class="cls-2" d="M655.41,718.56c10.18,5.87,26.19,5.87,36.07.1s10.06-15.13-.11-21c-9.93-5.75-26.19-5.64-36.07.12s-9.8,15,.11,20.74Z" transform="translate(-68)"/><path class="cls-2" d="M467.38,483.82c9.93,5.75,26,5.75,35.82,0s9.88-15-.07-20.79-26.22-5.9-36.1-.14-9.6,15.17.35,20.93Z" transform="translate(-68)"/><path class="cls-2" d="M347.31,623.3c7.81,4.53,20.1,4.49,27.85,0,7.56-4.38,7.73-11.66-.08-16.11-7.61-4.42-20.32-4.42-27.85-.07-7.79,4.52-7.56,11.8.08,16.18Z" transform="translate(-68)"/><path class="cls-2" d="M681.41,597.22c-7.83-4.53-20.1-4.53-27.63-.1-7.83,4.52-7.79,11.58.07,16.11,7.63,4.38,20.09,4.52,27.87,0,7.55-4.43,7.33-11.59-.31-16Z" transform="translate(-68)"/><path class="cls-2" d="M523,644.38c-4.43,2.53-4.43,6.47-.19,8.94a17,17,0,0,0,15.61,0c4.24-2.47,4.24-6.41-.25-8.94a16.45,16.45,0,0,0-15.17,0Z" transform="translate(-68)"/><path class="cls-2" d="M457.1,565.91a16.6,16.6,0,0,0-15.21,0c-4.38,2.5-4.38,6.45-.17,8.9a17.32,17.32,0,0,0,15.63,0c4.16-2.45,4-6.44-.25-8.9Z" transform="translate(-68)"/><path class="cls-2" d="M244.5,630.46a16.6,16.6,0,0,0-15.21,0c-4.38,2.5-4.38,6.44-.17,8.9s11.23,2.54,15.64,0c4.16-2.46,4-6.44-.26-8.9Z" transform="translate(-68)"/><path class="cls-2" d="M388.5,682.21a16.6,16.6,0,0,0-15.21,0c-4.38,2.5-4.38,6.44-.17,8.9s11.23,2.54,15.64,0c4.16-2.46,4-6.44-.26-8.9Z" transform="translate(-68)"/><path class="cls-2" d="M435.29,796.07a16.55,16.55,0,0,0-15.19,0c-4.4,2.5-4.4,6.44-.19,8.9s11.23,2.54,15.64,0c4.17-2.46,4-6.44-.26-8.9Z" transform="translate(-68)"/><path class="cls-2" d="M825.15,649.05a16.58,16.58,0,0,0-15.2,0c-4.38,2.5-4.38,6.44-.19,8.9a17.38,17.38,0,0,0,15.66,0c4.15-2.46,4-6.44-.27-8.9Z" transform="translate(-68)"/><path class="cls-3" d="M919.27,608.59c51.85,29.89,52.6,78.72,1.11,108.7-31.53,18.3-77.85,26-122.23,20.56L533.2,891.9c-28.68,16.59-75.51,16.67-104.25,0L90.23,696.35c-28.84-16.65-29.5-44-.83-60.71l265-154c-8.78-25.42,4.09-52.25,35.78-70.56,51.42-29.9,135.2-29.9,186.94,0ZM797.72,721.76c37.54,5.94,77,0,103.59-15.55,40.8-23.67,41.15-62.91-.41-86.9l-342-197.49c-41.15-23.71-109.37-23.71-150.18,0-26.66,15.54-36.28,38.61-26.41,60.06l-3.35,7.66L108.54,646.72c-18.54,10.7-18.39,28.18.18,38.88L447.4,881.16c18.58,10.74,48.66,10.74,67.14,0L785,724l12.7-2.24Z" transform="translate(-68)"/><path class="cls-4" d="M920.38,717.29c-31.53,18.3-77.85,26-122.23,20.56L533.2,891.9c-28.68,16.59-75.51,16.67-104.25,0L90.23,696.35c-14.62-8.45-22-19.67-22-30.78L68,759.13c0,11.16,7.35,22.36,22,30.8L428.6,985.5c28.84,16.67,75.66,16.59,104.25,0L798,831.45c44.39,5.35,90.56-2.26,122.14-20.57,25.43-14.79,38.14-34.24,38.14-53.68l.33-93.68C958.49,683.05,945.87,702.48,920.38,717.29Z" transform="translate(-68)"/><path class="cls-5" d="M512.37,502.39c9.18,8.32,14.47,18.13,14.57,28.85l.27,39.11H473.1l-34.56-20-.17-1.83v1.83l-70-40.47a98,98,0,0,0-13.19-6.42c16.21-15.39,45.51-25.64,79.05-25.64,25.63,0,48.81,5.86,65.58,15.48A83.29,83.29,0,0,1,512.37,502.39Z" transform="translate(-68)"/><g class="cls-6"><polygon class="cls-5" points="459.21 570.35 483.04 570.35 483.04 571.16 444.93 593.24 405.1 570.35 459.21 570.35"/><polygon class="cls-5" points="370.55 550.37 405.1 570.35 444.93 593.24 374.59 634.19 370.55 550.37"/><path class="cls-7" d="M568.26,643.25l-10.36-.18-.27-5.59c87.75-47.81,150.86-81.51,154-83.35C708.66,556,650.31,592.42,568.26,643.25Z" transform="translate(-68)"/><path class="cls-5" d="M798.51,578a72.17,72.17,0,0,1-10.9,7.51l-103,60-116.32-2.29c82-50.83,140.4-87.28,143.42-89.12-3.19,1.84-66.3,35.54-154,83.35l-4.22-67.6,103.13-60a101.69,101.69,0,0,1,13.11-6.42c35.71-14,85.26-11.92,117,6.42C818.94,528.57,822.78,557.25,798.51,578Z" transform="translate(-68)"/><polygon class="cls-7" points="484.13 548.91 485.41 569.88 489.63 637.48 489.9 643.07 489.9 643.34 484.68 646.46 484.13 646.18 479.27 643.34 479.27 643.07 483.04 571.16 483.04 570.35 484.13 548.91"/><polygon class="cls-7" points="652.76 646.18 614.19 647 490.63 649.3 489.44 649.3 484.13 646.18 484.68 646.46 489.9 643.34 489.9 643.07 500.26 643.25 616.58 645.54 652.76 646.18"/><path class="cls-5" d="M368.4,509.9l70,40.47-3.29,88.12L382.6,669.08l-55.79-32.24-3.57-88.3-2.66,84.73-82.51-47.72a68,68,0,0,1-11-7.51c-25-20.79-21.63-49.27,10-68.14,32.14-18.69,81.88-20.8,118.15-6.42A98,98,0,0,1,368.4,509.9Z" transform="translate(-68)"/><path class="cls-5" d="M843.4,623.92c.08,19.15-16.77,35.64-42.33,45.16a146.84,146.84,0,0,1-49.73,8.34H658.47l-14.37-8.34L682.19,647l38.57-.82-36.18-.64,103-60a72.17,72.17,0,0,0,10.9-7.51A105.68,105.68,0,0,1,816,585.92C832.87,595.52,843.31,609.18,843.4,623.92Z" transform="translate(-68)"/><polygon class="cls-5" points="260.47 677.42 258.81 636.84 314.6 669.08 300.3 677.42 260.47 677.42"/><path class="cls-5" d="M238.07,585.55l82.51,47.72-1.28,44.15h-44a147.71,147.71,0,0,1-49.73-8.34,112.22,112.22,0,0,1-15.67-7.24c-16.77-9.61-27-23.08-27.2-37.92-.1-19.5,17.68-36.54,44.34-45.88A68,68,0,0,0,238.07,585.55Z" transform="translate(-68)"/><path class="cls-5" d="M547.27,643.07c-31.95,17.31-66.49,36.18-101.58,55.32l-3.1-64.2,70.34-41L551,571.17Z" transform="translate(-68)"/><polygon class="cls-5" points="300.3 677.42 261.47 699.86 260.47 677.42 300.3 677.42"/><path class="cls-7" d="M461.19,709.56l-14.95-.37-.55-10.8c35.09-19.14,69.63-38,101.58-55.32v.27l4.86,2.84,5.31,3.12h1.19C528.12,668.26,494.89,688.77,461.19,709.56Z" transform="translate(-68)"/><path class="cls-5" d="M461.19,709.56c33.7-20.79,66.93-41.3,97.44-60.26L682.19,647,644.1,669.08l-72.55,42.14Z" transform="translate(-68)"/><polygon class="cls-5" points="576.1 669.08 590.47 677.42 653.2 713.59 503.55 711.22 576.1 669.08"/><polygon class="cls-7" points="370.37 548.54 370.55 550.37 374.59 634.19 377.69 698.39 378.25 709.19 371.38 713.59 370.85 713.32 364.52 709.56 364.62 705.63 367.08 638.49 370.37 550.37 370.37 548.54"/><polygon class="cls-7" points="653.2 713.59 495.85 715.8 380.55 717.26 377.79 717.26 370.85 713.32 371.38 713.59 378.25 709.56 393.19 709.56 503.55 711.22 653.2 713.59"/><path class="cls-5" d="M318.38,706.45l-79.51,46.16a67.32,67.32,0,0,0-11,7.7,108.12,108.12,0,0,1-17.83-8.06c-16.78-9.62-27.31-23.08-27.31-37.83-.19-19,17-35.82,42.87-45.34a147.71,147.71,0,0,0,49.73,8.34h44Z" transform="translate(-68)"/><path class="cls-5" d="M432.61,705.63c-34,18.68-68.05,37.37-100.58,55.31l-2.56-61.08,38.83-22.44,14.3-8.34,52.48-30.59Z" transform="translate(-68)"/><polygon class="cls-5" points="405.54 768.18 445.75 744.74 486.14 767.99 460.31 768.18 405.54 768.18"/><path class="cls-7" d="M359.15,771.94l-26.76-.37L332,760.94c32.53-17.94,66.6-36.63,100.58-55.31l-.09,3.93,6.33,3.76,6.94,3.94h2.76C418.59,735.76,388.26,754.26,359.15,771.94Z" transform="translate(-68)"/><path class="cls-5" d="M359.15,771.94c29.11-17.68,59.44-36.18,89.4-54.68l115.3-1.46-50.1,28.94-40.21,23.44-9,5.22Z" transform="translate(-68)"/><polygon class="cls-5" points="460.31 768.18 460.31 774.23 396.57 773.4 405.54 768.18 460.31 768.18"/><polygon class="cls-5" points="486.14 767.99 497.51 774.61 460.31 774.23 460.31 768.18 486.14 767.99"/><polygon class="cls-7" points="653.58 776.7 504 778.35 460.31 778.99 385.49 779.82 276.22 781.09 264.49 781.28 255.87 776.33 264.49 771.94 291.15 771.94 396.57 773.4 460.31 774.23 497.51 774.61 653.58 776.7"/><polygon class="cls-7" points="255.24 548.54 258.81 636.84 260.47 677.42 261.47 699.86 264.03 760.94 264.39 771.57 256.44 776.7 248.36 771.94 248.55 769.46 250.38 706.45 251.3 677.42 252.58 633.27 255.24 548.54"/><path class="cls-7" d="M344.22,781.09c-32.43,19.69-63,38.2-89.77,54.23l-15.58-7-11.79-8.71c26.47-15,57-32.06,89.47-50.11l-.19,2.48,7.51,4.39,8.62,4.95Z" transform="translate(-68)"/><path class="cls-5" d="M316.55,769.46c-32.42,18-63,35.08-89.47,50.11l11.79,8.71c-31.76-18.34-35.53-47-11-68a67.32,67.32,0,0,1,11-7.7l79.51-46.16Z" transform="translate(-68)"/><path class="cls-5" d="M799.52,760.12c25,21,21.62,49.82-10.53,68.51-31.61,18.32-81.34,20.24-117.6,5.87a112.52,112.52,0,0,1-13.11-6.22L572,778.35l149.57-1.65-156.07-2.09L554.14,768l-40.39-23.25,50.1-28.94,157.35-2.21,67.43,38.83A92.21,92.21,0,0,1,799.52,760.12Z" transform="translate(-68)"/><path class="cls-5" d="M254.45,835.32c26.76-16,57.34-34.54,89.77-54.23l109.27-1.27L370,828.28a83.5,83.5,0,0,1-13.37,6.41c-36.09,14.18-85.63,12.09-117.8-6.41Z" transform="translate(-68)"/><path class="cls-5" d="M514.21,835.68c-16.4,15-45.15,24.82-77.77,24.74-25.82.08-49.18-5.78-66-15.57a66.17,66.17,0,0,1-13.75-10.16A83.5,83.5,0,0,0,370,828.28l83.45-48.46,74.82-.83.1,28C528.5,817.47,523.29,827.26,514.21,835.68Z" transform="translate(-68)"/></g><path class="cls-5" d="M671.39,834.5c-16,15.57-45.35,25.92-79,25.92-25.65,0-48.81-6-65.5-15.57a87.24,87.24,0,0,1-12.63-9.17c9.08-8.42,14.29-18.21,14.2-28.67l-.1-28,43.7-.64,86.27,49.93A112.52,112.52,0,0,0,671.39,834.5Z" transform="translate(-68)"/><path class="cls-5" d="M590.24,477.66c25.54.18,48.72,6,65.67,15.83a75.9,75.9,0,0,1,13.74,10,101.69,101.69,0,0,0-13.11,6.42l-103.13,60-1.38-21-1,21.44H527.21l-.27-39.11c-.1-10.72-5.39-20.53-14.57-28.85C528.58,487.44,557.25,477.66,590.24,477.66Z" transform="translate(-68)"/><path class="cls-5" d="M843.85,714.15c.09,19.5-17.67,36.54-44.33,46a92.21,92.21,0,0,0-10.89-7.7L721.2,713.59l-62.73-36.17h92.87a146.84,146.84,0,0,0,49.73-8.34,94.06,94.06,0,0,1,15.67,7.24C833.5,685.94,843.77,699.4,843.85,714.15Z" transform="translate(-68)"/><g class="cls-6"><path class="cls-8" d="M577.41,394.49l-.15,31.8c.07-8.77-5.81-17.81-17.57-24.55-23.45-13.55-61.83-13.82-85-.25-11.42,6.56-17.05,15.34-17.05,24V393.72c0-8.69,5.71-17.39,17.15-24.13,23.27-13.55,61.56-13.22,85,.34C571.53,376.75,577.41,385.62,577.41,394.49Z" transform="translate(-68)"/><path class="cls-8" d="M692,462.62l.08-31.89c.09-3.67,2.46-7.42,7.59-10.48l-.08,31.8C694.41,455,692,458.78,692,462.62Z" transform="translate(-68)"/><path class="cls-8" d="M287,470v31.73c0-6.91-4.52-13.9-13.57-19.11l.09-31.88C282.55,456.05,287.06,462.89,287,470Z" transform="translate(-68)"/><path class="cls-8" d="M449.68,540.57l.09-31.9c0-3.83,2.64-7.67,7.84-10.65,9.9-5.8,25.84-5.8,35.81,0l-.07,31.72c-10-5.71-25.93-5.71-35.81.07C452.32,532.9,449.68,536.73,449.68,540.57Z" transform="translate(-68)"/><path class="cls-8" d="M501.1,508.84,501,540.65c0-3.92-2.56-7.93-7.67-10.91l.07-31.72C498.54,500.91,501.18,504.84,501.1,508.84Z" transform="translate(-68)"/><path class="cls-8" d="M686,581.25l.07-31.89c0-6.84,4.61-13.57,13.73-18.86,17.73-10.4,46.65-10.4,65.07.26l-.1,31.89c-18.42-10.66-47.32-10.66-65-.34C690.59,567.51,686,574.41,686,581.25Z" transform="translate(-68)"/><path class="cls-8" d="M778.59,549.94v31.89c0-7-4.61-14-13.83-19.18l.1-31.89C774.06,536.13,778.59,543.12,778.59,549.94Z" transform="translate(-68)"/><path class="cls-8" d="M418,561.46l-.08,31.64c0-6.83-4.53-13.65-13.74-19-17.91-10.39-47.84-10.39-65.58,0-9.11,5.38-13.46,12-13.46,18.94l.08-31.89c0-6.73,4.35-13.56,13.47-18.93,17.75-10.23,47.68-10.23,65.58.16C413.45,547.56,418,554.55,418,561.46Z" transform="translate(-68)"/><path class="cls-8" d="M136.47,566.49l-.09,31.8c0-3.75-2.65-7.59-7.93-10.65-10-5.81-25.84-5.81-36.24.33l.08-31.89c10.4-6,26.36-6.14,36.24-.33C133.73,558.81,136.47,562.65,136.47,566.49Z" transform="translate(-68)"/><path class="cls-8" d="M596.69,601.2l-.08,31.72c0-3.84-2.56-7.59-7.94-10.83-10-5.63-25.91-5.63-35.73,0l.09-31.72c9.9-5.81,25.76-5.81,35.74,0C594.14,593.45,596.77,597.28,596.69,601.2Z" transform="translate(-68)"/><path class="cls-8" d="M545.11,632.74l.08-31.72c.09-3.74,2.54-7.57,7.84-10.65l-.09,31.72C547.67,625.17,545.11,629,545.11,632.74Z" transform="translate(-68)"/><polygon class="cls-8" points="866.39 555.75 866.3 587.64 696.43 686.3 696.51 654.58 866.39 555.75"/><path class="cls-8" d="M720.85,697l.18-31.72c0-3.76,2.56-7.59,7.74-10.66,9.9-5.81,25.84-5.81,35.74,0l-.08,31.72c-9.88-5.63-25.85-5.63-35.72,0C723.41,689.37,720.93,693.12,720.85,697Z" transform="translate(-68)"/><polygon class="cls-8" points="267.41 687.41 267.33 719.05 261.45 724.85 261.53 693.03 267.41 687.41"/><polygon class="cls-8" points="261.53 693.03 261.45 724.85 60.61 608.95 60.7 577.15 261.53 693.03"/><path class="cls-8" d="M560.46,697l-.09,31.88c0-9-5.89-18-17.9-25-23.47-13.48-61.66-13.31-84.93.26-11.61,6.73-17.4,15.6-17.4,24.38l.07-31.81c.09-8.87,5.8-17.56,17.4-24.29,23.28-13.56,61.56-13.82,84.94-.26C554.58,679,560.46,688,560.46,697Z" transform="translate(-68)"/><path class="cls-8" d="M379.58,697.73l-.08,31.9c0-3.85-2.56-7.68-7.84-10.66-10-5.8-25.84-5.8-36.33.08l.08-31.64c10.5-6.14,26.35-6.14,36.32-.34C377,690.13,379.67,693.9,379.58,697.73Z" transform="translate(-68)"/><polygon class="cls-8" points="660.36 675.47 660.28 707.35 512.65 793.06 512.83 761.34 660.36 675.47"/><path class="cls-8" d="M537.09,803.9l.16-31.9c0-3.84,2.56-7.59,7.76-10.66,9.9-5.8,25.84-5.8,35.82,0l-.17,31.72c-9.89-5.62-25.84-5.62-35.73,0C539.73,796.06,537.17,800.05,537.09,803.9Z" transform="translate(-68)"/><polygon class="cls-8" points="446.4 799.88 446.4 831.61 293.85 743.61 293.93 711.8 446.4 799.88"/><polygon class="cls-8" points="476.68 782.4 476.59 814.04 446.4 831.61 446.4 799.88 476.68 782.4"/></g><path class="cls-9" d="M764.51,654.58c-9.9-5.81-25.84-5.81-35.74,0-10.38,6-10.38,15.26-.41,20.89L580.83,761.34c-10-5.8-25.92-5.8-35.82,0-10.4,6.06-10.31,15.27-.33,21.06L514.4,799.88,361.93,711.8l10-3.41c10.32-6.06,10.23-15.27-.18-21.32-10-5.8-25.82-5.8-36.32.34L329.53,693,128.71,577.15c10.32-6.14,10.32-15.27-.18-21.4-9.88-5.81-25.84-5.63-36.24.33L208.1,488.8c18,10.41,47.84,10.23,65.66-.08s17.64-27.64-.26-38L512.28,312.12,699.62,420.25c-10.39,6-9.81,15.51.17,21.31s25.84,5.8,36.24-.25L934.39,555.75ZM457.87,721.27c23.95,13.81,61.65,13.81,84.93.24,23.37-13.38,23.7-35.65-.25-49.36-23.38-13.56-61.66-13.3-84.94.26s-23.1,35.37.26,48.86Zm17.72-302.39c23.38,13.56,61.17,13.56,84.35,0,23.37-13.55,23.28-35.39-.16-48.95s-61.75-13.89-85-.34-22.6,35.74.83,49.29ZM338.83,580.3c18.42,10.66,47.33,10.58,65.57,0,17.81-10.31,18.24-27.45-.17-37.95-17.9-10.39-47.83-10.39-65.58-.16-18.32,10.66-17.82,27.8.18,38.11Zm426-49.54c-18.42-10.66-47.34-10.66-65.07-.26-18.42,10.65-18.33,27.29.17,38,18,10.32,47.33,10.65,65.66,0,17.74-10.4,17.22-27.3-.76-37.69ZM553,590.37c-10.41,6-10.41,15.26-.43,21.06,10.49,6,26.44,6,36.77,0,10-5.8,10-15.1-.6-21.06-10-5.81-25.84-5.81-35.74,0ZM493.42,498c-10-5.8-25.91-5.8-35.81,0-10.32,5.88-10.32,15.17-.42,21s26.42,6,36.84,0c9.81-5.8,9.38-15.18-.61-21Z" transform="translate(-68)"/><path class="cls-10" d="M632.11,339.49c-4.43-2.74-10-4.71-16.56-6.22-66-15.34-140.57-15.34-206.2,0-35.12,8.19-38.22,32.3-11.29,47.92L463.59,419c27.39,16,71.35,15.81,98.66,0l65.15-37.77C649.06,368.59,650.94,350.22,632.11,339.49ZM461.6,378.65a14.64,14.64,0,0,1-7.05-2,12.6,12.6,0,0,1-6.69-11.11c0-7.63,5.45-13.27,13.09-13.27a14.39,14.39,0,0,1,7.05,1.79c4,2.35,6.79,6.58,6.69,11.1a13.5,13.5,0,0,1-13.09,13.46Zm105.27-.09c-.86.09-1.79.29-2.63.29a11.83,11.83,0,0,1-6.23-1.79,13.68,13.68,0,0,1-7-11.49c0-7.63,5.45-13.27,13.08-13.27a14.08,14.08,0,0,1,7,1.79,12.37,12.37,0,0,1,6.31,11.48c.57,6.4-4.52,11.58-10.45,13Z" transform="translate(-68)"/><path class="cls-11" d="M735.76,353.23c123.82,71.48,124.48,187.08,1.52,258.63C614.7,683,415.09,683,291.29,611.5s-124.57-187.17-2-258.27C412.28,281.69,612,281.69,735.76,353.23ZM687.85,416,622.8,454c-27.22,15.81-27.22,41.23-.19,56.87l66,38c26.93,15.64,68.65,13.65,82.29-6.87,26.08-38.24,26.37-81.16-.18-119.19A36.5,36.5,0,0,0,759.78,413c-19-10.93-50.19-9.62-71.93,3ZM562.25,419l65.15-37.77c21.66-12.6,23.54-31,4.71-41.7-4.43-2.74-10-4.71-16.56-6.22-66-15.34-140.57-15.34-206.2,0-35.12,8.19-38.22,32.3-11.29,47.92L463.59,419c27.39,16,71.35,15.81,98.66,0Zm55,212.3c35.6-7.9,38.13-31.83,11.21-47.36l-66.08-38.23c-27-15.44-70.72-15.44-97.55,0L399.19,583.9C377.73,596.33,375.26,614.22,394,625c4.52,2.72,10.37,4.88,17.52,6.58,65.81,15.16,139.44,15.34,205.71-.28ZM338.65,548.88l65.61-38c26.85-15.64,26.65-41.06-.27-56.59L337.89,416c-27-15.45-68.07-13.94-82.29,6.39-26.64,38.42-25.79,81.34.67,119.58a31.06,31.06,0,0,0,11,9.88c18.65,10.82,49.82,9.51,71.38-3Z" transform="translate(-68)"/><path class="cls-10" d="M404,454.26c26.92,15.53,27.12,40.95.27,56.59l-65.61,38c-21.56,12.52-52.73,13.83-71.38,3a31.06,31.06,0,0,1-11-9.88c-26.46-38.24-27.31-81.16-.67-119.58,14.22-20.33,55.27-21.84,82.29-6.39Zm-92.82,5.93c13.36,0,22.58-3.39,23.06-7.63,0-1.5-1.14-2.81-3.21-4.05-4-2.35-11.39-3.67-19.85-3.48-12.63-.38-23.09,3.21-23.09,7.53.29,1.42,1.43,2.54,3.21,3.76,4.15,2.37,11.67,4.05,19.88,3.87Zm.46,59.78c13.08,0,22.5-3.38,23-7.61,0-1.51-1.22-2.84-3.18-4.07-4.06-2.35-11.49-3.85-19.87-3.48-12.62-.37-23.08,3.21-23,7.55.09,1.31,1.22,2.53,3.1,3.76,4.14,2.34,11.59,3.85,20,3.85Z" transform="translate(-68)"/><path class="cls-10" d="M757.05,340.81c135.39,78.15,136.7,204.86,1.69,283.3-134.54,78.33-353.89,78.33-489.3,0C134.07,546.05,133.21,419,267.75,340.81,402.76,262.29,621.75,262.67,757.05,340.81ZM291.29,611.5c123.8,71.53,323.41,71.53,446,.36,123-71.55,122.3-187.15-1.52-258.63s-323.48-71.54-446.46,0c-122.58,71.1-121.9,186.7,2,258.27Z" transform="translate(-68)"/><path class="cls-10" d="M770.88,542c-13.64,20.52-55.36,22.51-82.29,6.87l-66-38c-27-15.64-27-41.06.19-56.87L687.85,416c21.74-12.63,52.91-13.94,71.93-3a36.5,36.5,0,0,1,10.92,9.79C797.25,460.85,797,503.77,770.88,542Zm-56-81.64c13.26-.18,23-3.19,23-7.81,0-1.5-1.12-2.81-3.19-4.05-4-2.16-11.4-3.67-19.86-3.48-12.62-.38-23.08,3.21-23.08,7.53.27,1.42,1.51,2.54,3.29,3.76,4.15,2.37,11.59,3.87,19.79,4.05Zm.45,59.6c13.19,0,22.51-3.57,23-7.61,0-1.51-1.23-2.84-3.29-4.07-4-2.35-11.21-3.85-19.29-3.85-13.11,0-23.45,3.58-23,7.62,0,1.52,1.32,2.83,3.29,4.16,4.05,2.24,11.29,3.75,19.29,3.75Z" transform="translate(-68)"/><path class="cls-10" d="M628.44,583.9c26.92,15.53,24.39,39.46-11.21,47.36-66.27,15.62-139.9,15.44-205.71.28-7.15-1.7-13-3.86-17.52-6.58-18.74-10.74-16.27-28.63,5.19-41.06l65.62-38.23c26.83-15.44,70.6-15.44,97.55,0ZM462.36,612.71c7.73,0,13.66-5.93,13.19-13.28A12.55,12.55,0,0,0,469.24,588a14.59,14.59,0,0,0-7-1.88,12.65,12.65,0,0,0-13,13.36,13.35,13.35,0,0,0,6.86,11.4,11.42,11.42,0,0,0,6.22,1.88Zm103.18,0c7.07-.18,13.66-5.93,13.09-13.28A12.27,12.27,0,0,0,572.42,588a15.1,15.1,0,0,0-7-1.88c-7.72,0-13.19,5.75-13.19,13.36a13.56,13.56,0,0,0,7,11.59,13.37,13.37,0,0,0,6.3,1.69Z" transform="translate(-68)"/><g class="cls-6"><path class="cls-11" d="M571,354.09a12.19,12.19,0,0,1,6.31,11.48c.57,7.44-6,13-13.08,13.28a11.83,11.83,0,0,1-6.23-1.79,13.68,13.68,0,0,1-7-11.49c0-7.63,5.45-13.27,13.08-13.27A14.08,14.08,0,0,1,571,354.09Z" transform="translate(-68)"/><path class="cls-11" d="M734.74,448.51c2.07,1.24,3.19,2.55,3.19,4.05,0,4.62-9.79,7.63-23,7.81-8.2-.18-15.64-1.68-19.79-4.05-1.78-1.22-3-2.34-3.29-3.76,0-4.32,10.46-7.91,23.08-7.53C723.34,444.84,730.69,446.35,734.74,448.51Z" transform="translate(-68)"/><path class="cls-11" d="M331,448.51c2.07,1.24,3.21,2.55,3.21,4.05-.48,4.24-9.7,7.63-23.06,7.81-8.21,0-15.73-1.68-19.88-4.05-1.78-1.22-2.92-2.34-3.21-3.76,0-4.32,10.46-7.91,23.09-7.53C319.63,444.84,327.06,446.16,331,448.51Z" transform="translate(-68)"/><path class="cls-11" d="M735,508.29c2.06,1.23,3.29,2.56,3.29,4.07-.47,4.23-9.79,7.61-23,7.61-8,0-15.24-1.51-19.29-3.75-2-1.33-3.29-2.64-3.29-4.16-.47-4,9.87-7.62,23-7.62C723.81,504.44,731.05,505.94,735,508.29Z" transform="translate(-68)"/><path class="cls-11" d="M331.41,508.29c2,1.23,3.18,2.56,3.18,4.07-.46,4.23-9.88,7.61-23,7.61-8.38,0-15.83-1.51-20-3.85-1.88-1.23-3-2.45-3.1-3.76-.1-4.34,10.36-7.92,23-7.55C319.92,504.44,327.35,505.94,331.41,508.29Z" transform="translate(-68)"/><path class="cls-11" d="M468,354.09c4,2.35,6.79,6.58,6.69,11.1a13.5,13.5,0,0,1-13.09,13.46,14.64,14.64,0,0,1-7.05-2,12.6,12.6,0,0,1-6.69-11.11c0-7.63,5.45-13.27,13.09-13.27A14.39,14.39,0,0,1,468,354.09Z" transform="translate(-68)"/><path class="cls-11" d="M572.42,588a12.27,12.27,0,0,1,6.21,11.48c.57,7.35-6,13.1-13.09,13.28a13.37,13.37,0,0,1-6.3-1.69,13.56,13.56,0,0,1-7-11.59c0-7.61,5.47-13.36,13.19-13.36A15.1,15.1,0,0,1,572.42,588Z" transform="translate(-68)"/><path class="cls-11" d="M469.24,588a12.55,12.55,0,0,1,6.31,11.48c.47,7.35-5.46,13.28-13.19,13.28a11.42,11.42,0,0,1-6.22-1.88,13.35,13.35,0,0,1-6.86-11.4,12.65,12.65,0,0,1,13-13.36A14.59,14.59,0,0,1,469.24,588Z" transform="translate(-68)"/><path class="cls-12" d="M849.89,529.66a125.09,125.09,0,0,1-8.67,17.43c-2.36,4-4.9,8-7.72,12a192.52,192.52,0,0,1-23.35,27.12c-5.08,4.69-10.45,9.41-16.19,14-5.27,4.14-10.84,8.38-16.77,12.43-5.83,3.86-12.05,7.73-18.45,11.4a333.51,333.51,0,0,1-33.9,17.41c-9,4-18.35,7.72-28,11.2a36.19,36.19,0,0,0-3.57,1.42A481.94,481.94,0,0,1,641,668.92c-4.81,1.23-9.62,2.16-14.41,3.2,0,14-.11,28-.11,41.9,0,2.35-.08,4.71-.08,7.25,4.9-1,9.79-2,14.5-3a523.08,523.08,0,0,0,52.25-15c1.21-.46,2.45-.83,3.59-1.31,9.58-3.56,18.92-7.25,28-11.29a355.79,355.79,0,0,0,33.79-17.24c6.41-3.86,12.62-7.71,18.45-11.58,6-4,11.6-8.28,16.78-12.42,5.82-4.61,11.1-9.32,16.18-14a193.91,193.91,0,0,0,23.45-27.12c2.81-4,5.36-7.91,7.72-12a161.35,161.35,0,0,0,8.66-17.5,120.45,120.45,0,0,0,9.32-46.06c.09-14.86.18-34.35.18-49.24A121.39,121.39,0,0,1,849.89,529.66Z" transform="translate(-68)"/><path class="cls-12" d="M520.82,682.76c-2.44.19-5,.19-7.53.19a583.17,583.17,0,0,1-126.82-14.22,11,11,0,0,0-1.5-.28c-16.57-3.86-32.68-8.56-48.29-13.85-11.21-3.85-21.95-8.18-32.48-12.79a364,364,0,0,1-34.76-17.7c-6.67-3.67-13-7.73-19-11.78S238.67,604,233.2,599.72c-5.84-4.71-11.31-9.61-16.38-14.32a186.41,186.41,0,0,1-24.1-28c-.29-.38-.48-.75-.67-.85-.38-.65-.74-1.22-1-1.69-15.81-23.63-23.73-48.49-23.62-73.25l-.11,49.15c-.1,24.94,7.72,49.71,23.55,73.25a12.25,12.25,0,0,0,1.12,1.69,2.71,2.71,0,0,1,.55.85,190.79,190.79,0,0,0,24.21,28.06c5.09,4.89,10.45,9.6,16.38,14.3,5.36,4.24,11.12,8.67,17.24,12.62,5.93,4,12.33,8.09,18.93,11.95,11.1,6.31,22.77,12.15,34.82,17.53,10.45,4.7,21.38,8.94,32.48,12.79a490.48,490.48,0,0,0,48.21,13.84,10.21,10.21,0,0,0,1.5.3A585.48,585.48,0,0,0,513.21,732.1h7.51a594.84,594.84,0,0,0,105.65-10.83c0-16.48.19-32.76.19-49.15A575.36,575.36,0,0,1,520.82,682.76Z" transform="translate(-68)"/></g><path class="cls-13" d="M607,291.05c55.31,32,55.31,83.69.63,115.47-55,32-143.88,32-199.28,0-55.06-31.78-55.63-83.45-.69-115.47C462.36,259.33,552,259.33,607,291.05Z" transform="translate(-68)"/><path class="cls-14" d="M598.11,296.23c50.62,29.15,50.81,76.4,1,105.33-50.24,29.22-131.75,29.22-182.24,0-50.18-28.93-50.49-76.18-.26-105.33C466.5,267.23,548,267.23,598.11,296.23Z" transform="translate(-68)"/><polygon class="cls-15" points="510.6 302.01 510.6 309.3 497.95 309.3 498.27 302.21 510.6 302.01"/><polygon class="cls-15" points="378.02 305.89 377.63 312.95 365.37 313.19 365.37 305.89 378.02 305.89"/><path class="cls-15" d="M520.8,299c6.61,3.85,6.74,10.27,0,14.15-6.94,4.1-18,4.1-24.81.23-7-4.11-7-10.53,0-14.63C502.6,294.93,513.67,294.93,520.8,299Z" transform="translate(-68)"/><polygon class="cls-15" points="477.03 334.44 477.03 341.69 464.49 341.69 464.44 334.44 477.03 334.44"/><polygon class="cls-15" points="422.33 353.3 422.66 360.41 410.19 360.36 410.39 353.3 422.33 353.3"/><path class="cls-15" d="M433.18,339.16c9,5.11,9,13.28-.26,18.62-8.84,5.18-22.95,5.18-31.85,0s-9.41-13.44-.44-18.62C409.84,333.81,424.28,334,433.18,339.16Z" transform="translate(-68)"/><path class="cls-15" d="M611.4,342.78c8.9,5.18,9.36,13.53.12,18.88-8.82,5.19-23.39,5-32.29-.16s-9-13.38-.06-18.47C588.32,337.66,602.45,337.66,611.4,342.78Z" transform="translate(-68)"/><polygon class="cls-15" points="505.57 394.06 505.57 401.33 493.3 401.18 493.3 394.28 505.57 394.06"/><path class="cls-15" d="M483.17,391c6.73,3.88,7.05,10.15,0,14.25-6.69,3.84-17.74,3.84-24.42,0-7.07-4.1-7.19-10.53-.46-14.41C465.35,386.77,476.1,387,483.17,391Z" transform="translate(-68)"/><path class="cls-16" d="M628,391.32a94.83,94.83,0,0,1-16,12.4c-1.33.92-2.92,1.81-4.38,2.74-.52.29-1.09.57-1.53.86-50.22,28.35-128.7,30.64-183.7,6.29a138,138,0,0,1-14.11-7.15,107.74,107.74,0,0,1-14.7-10c-2.34-1.87-4.64-3.82-6.66-5.78-13.43-13-20.18-27.69-20.18-42.35l-.06,23.31c0,14.66,6.69,29.38,20.1,42.34,2,2,4.33,3.91,6.73,5.85a107.38,107.38,0,0,0,14.63,10c4.59,2.54,9.22,4.95,14.12,7.15,55,24.32,133.46,22,183.76-6.36.45-.28,1-.51,1.46-.79,1.47-.93,3-1.82,4.52-2.81a110,110,0,0,0,16-12.33c13.68-12.94,20.48-27.56,20.48-42.22,0-10,.12-13.35.12-23.3C648.6,363.82,641.68,378.44,628,391.32Z" transform="translate(-68)"/><path class="cls-13" d="M400,422.57c55.32,31.92,55.7,83.42.62,115.35-54.68,31.85-143.88,32.08-199.28,0-55.06-31.71-55.25-83.69-.69-115.35C255.64,390.56,344.92,390.78,400,422.57Z" transform="translate(-68)"/><path class="cls-14" d="M391.52,427.43c-50.22-28.93-131.74-28.93-181.92.22-49.9,29-49.52,76.18.57,105.17,50.62,29.22,132,29.22,181.93.24C442.26,503.83,442,456.62,391.52,427.43Z" transform="translate(-68)"/><polygon class="cls-15" points="301.01 521.44 301.01 514.17 313.54 514.17 313.67 521.44 301.01 521.44 301.01 521.44"/><path class="cls-16" d="M421.21,522.81a106.05,106.05,0,0,1-16,12.4c-1.45.89-3,1.81-4.58,2.71-.44.34-1,.56-1.46.91-50.23,28.33-128.7,30.6-183.76,6.27a151,151,0,0,1-14.06-7.18A103.33,103.33,0,0,1,186.64,528c-2.34-1.92-4.63-3.85-6.67-5.8-13.42-13.06-20.14-27.75-20-42.4l-.11,23.3c-.13,14.7,6.61,29.44,20.14,42.42,2,1.94,4.19,3.87,6.55,5.78a122.59,122.59,0,0,0,14.7,10c4.51,2.51,9.21,4.9,14.17,7.15,54.95,24.35,133.4,22.06,183.64-6.36a15,15,0,0,1,1.53-.79c1.58-.9,3-1.82,4.51-2.84a102.67,102.67,0,0,0,16-12.27c13.67-13,20.46-27.62,20.46-42.32.13-9.88.13-13.29.13-23.3C441.69,495.28,434.89,510,421.21,522.81Z" transform="translate(-68)"/><path class="cls-15" d="M317.31,418.47c9,5.11,9,13.26.08,18.38s-23.28,5.46-32.18.22-9-13.68,0-18.82S308.42,413.28,317.31,418.47Z" transform="translate(-68)"/><polygon class="cls-15" points="225.08 463.1 225.22 470.39 212.56 470.39 212.56 463.1 225.08 463.1"/><path class="cls-15" d="M386.88,473.57c6.68,3.88,6.8,10.35.13,14.21-7.05,4.09-18.12,4.09-24.81.25-7.05-4.11-7.18-10.58-.11-14.68C368.82,469.5,379.82,469.5,386.88,473.57Z" transform="translate(-68)"/><polygon class="cls-15" points="155.01 511.08 154.7 518.27 142.43 518.49 142.43 511.08 155.01 511.08"/><path class="cls-15" d="M311.6,521.66c8.9,5.13,8.65,13.55-.19,18.67s-23,5.22-32,0-9.28-13.54-.32-18.67C287.82,516.55,302.76,516.55,311.6,521.66Z" transform="translate(-68)"/><path class="cls-15" d="M227.92,451.53c7.06,4.07,7.06,10.46.38,14.3-7,4.11-18.13,4.11-25.18,0-6.67-3.84-6.67-10.23.38-14.3C210.05,447.65,221.24,447.65,227.92,451.53Z" transform="translate(-68)"/><polygon class="cls-15" points="306.8 437.07 306.93 444.35 294.34 444.47 294.34 437.07 306.8 437.07"/><polygon class="cls-14" points="306.8 444.35 306.93 444.35 306.8 437.07 306.8 444.35"/><polygon class="cls-15" points="257.58 494.61 257.58 501.9 245.43 501.67 245.32 494.83 257.58 494.61"/><path class="cls-13" d="M825.19,404.12c55.33,32,55.33,83.69.64,115.47-55,31.95-143.89,31.95-199.29,0-55.06-31.78-55.63-83.45-.69-115.47C680.53,372.4,770.13,372.4,825.19,404.12Z" transform="translate(-68)"/><path class="cls-14" d="M816.28,409.3c50.62,29.15,50.81,76.4,1,105.33-50.24,29.22-131.75,29.22-182.24,0-50.16-28.93-50.49-76.18-.26-105.33C684.67,380.3,766.17,380.3,816.28,409.3Z" transform="translate(-68)"/><polygon class="cls-15" points="728.77 415.08 728.77 422.37 716.12 422.37 716.44 415.28 728.77 415.08"/><polygon class="cls-15" points="596.2 418.97 595.82 426.02 583.54 426.26 583.54 418.97 596.2 418.97"/><path class="cls-15" d="M739,412.1c6.61,3.85,6.74,10.27,0,14.16-6.94,4.09-18.05,4.09-24.79.22-7-4.11-7-10.53-.08-14.63C720.79,408,731.84,408,739,412.1Z" transform="translate(-68)"/><polygon class="cls-15" points="695.2 447.52 695.2 454.77 682.68 454.77 682.6 447.52 695.2 447.52"/><polygon class="cls-15" points="640.5 466.37 640.82 473.49 628.38 473.43 628.56 466.37 640.5 466.37"/><path class="cls-15" d="M651.34,452.23c9,5.11,9,13.28-.24,18.62-8.85,5.18-23,5.18-31.86,0s-9.41-13.44-.44-18.62C628,446.88,642.45,447.1,651.34,452.23Z" transform="translate(-68)"/><path class="cls-15" d="M829.58,455.85c8.89,5.18,9.35,13.54.11,18.88-8.82,5.19-23.38,5-32.29-.16s-9-13.38-.06-18.46C806.5,450.73,820.62,450.73,829.58,455.85Z" transform="translate(-68)"/><polygon class="cls-15" points="723.74 507.13 723.74 514.4 711.47 514.25 711.47 507.35 723.74 507.13"/><path class="cls-15" d="M701.32,504.1c6.76,3.88,7.07,10.15,0,14.25-6.67,3.84-17.72,3.84-24.41,0-7-4.1-7.2-10.53-.44-14.4C683.52,499.85,694.27,500.11,701.32,504.1Z" transform="translate(-68)"/><path class="cls-16" d="M846.17,504.39a94.43,94.43,0,0,1-16,12.4c-1.33.92-2.92,1.81-4.39,2.74-.49.28-1.08.57-1.52.86C774,548.74,695.54,551,640.54,526.68a139.21,139.21,0,0,1-14.12-7.15,108.24,108.24,0,0,1-14.69-10c-2.34-1.87-4.64-3.82-6.68-5.78-13.4-13-20.14-27.69-20.14-42.35l-.08,23.31c0,14.65,6.69,29.38,20.1,42.34,2,2,4.33,3.91,6.73,5.86a109.55,109.55,0,0,0,14.63,9.95c4.59,2.54,9.22,5,14.12,7.15,55,24.33,133.46,22,183.76-6.36.45-.28,1-.51,1.46-.79,1.47-.93,3-1.82,4.52-2.81a110.62,110.62,0,0,0,16-12.32c13.68-12.95,20.48-27.58,20.48-42.23,0-10,.12-13.35.12-23.3C866.77,476.89,859.85,491.52,846.17,504.39Z" transform="translate(-68)"/><path class="cls-13" d="M618.15,535.64c55.31,31.92,55.71,83.42.63,115.35-54.68,31.85-143.9,32.08-199.26,0-55.08-31.71-55.26-83.69-.71-115.35C473.82,503.63,563.09,503.85,618.15,535.64Z" transform="translate(-68)"/><path class="cls-14" d="M609.69,540.5c-50.22-28.93-131.74-28.93-181.91.22-49.93,29-49.53,76.18.57,105.18,50.61,29.21,132,29.21,181.92.23C660.43,616.9,660.18,569.69,609.69,540.5Z" transform="translate(-68)"/><polygon class="cls-15" points="519.19 634.51 519.19 627.24 531.71 627.24 531.84 634.51 519.19 634.51 519.19 634.51"/><path class="cls-16" d="M639.38,635.87a104.85,104.85,0,0,1-16,12.41c-1.47.89-3,1.82-4.59,2.71-.44.34-1,.57-1.45.91-50.23,28.33-128.71,30.6-183.77,6.27a145.86,145.86,0,0,1-14-7.18,102.89,102.89,0,0,1-14.7-9.89c-2.34-1.92-4.64-3.85-6.68-5.8-13.41-13.06-20.14-27.75-20-42.41L378,616.2c-.15,14.7,6.61,29.44,20.14,42.42,2,1.94,4.21,3.88,6.56,5.77a122.77,122.77,0,0,0,14.68,10c4.52,2.52,9.22,4.9,14.18,7.15,54.94,24.34,133.4,22.06,183.64-6.36a16,16,0,0,1,1.52-.79c1.59-.9,3-1.81,4.52-2.84a101.77,101.77,0,0,0,16-12.27c13.68-13,20.48-27.62,20.48-42.31.12-9.89.12-13.3.12-23.31C659.86,608.35,653.06,623,639.38,635.87Z" transform="translate(-68)"/><path class="cls-15" d="M535.49,531.54c9,5.11,9,13.26.07,18.38s-23.28,5.46-32.18.21-9-13.67-.07-18.81S526.59,526.35,535.49,531.54Z" transform="translate(-68)"/><polygon class="cls-15" points="443.27 576.17 443.38 583.46 430.73 583.46 430.73 576.17 443.27 576.17"/><path class="cls-15" d="M605.05,586.64c6.68,3.88,6.8,10.36.13,14.21-7,4.09-18.12,4.09-24.79.25-7.07-4.1-7.2-10.58-.13-14.68C587,582.57,598,582.57,605.05,586.64Z" transform="translate(-68)"/><polygon class="cls-15" points="373.2 624.15 372.87 631.33 360.6 631.55 360.6 624.15 373.2 624.15"/><path class="cls-15" d="M529.75,634.73c8.92,5.13,8.67,13.55-.17,18.67s-23,5.22-32,0-9.28-13.54-.32-18.67C506,629.61,520.93,629.61,529.75,634.73Z" transform="translate(-68)"/><path class="cls-15" d="M446.09,564.6c7.05,4.07,7.05,10.46.38,14.31-7,4.1-18.12,4.1-25.18,0-6.67-3.85-6.67-10.24.38-14.31C428.22,560.72,439.41,560.72,446.09,564.6Z" transform="translate(-68)"/><polygon class="cls-15" points="524.97 550.13 525.1 557.41 512.5 557.54 512.5 550.13 524.97 550.13"/><polygon class="cls-14" points="524.97 557.41 525.1 557.41 524.97 550.13 524.97 557.41"/><polygon class="cls-15" points="475.75 607.68 475.75 614.97 463.6 614.74 463.48 607.9 475.75 607.68"/><path class="cls-17" d="M682.41,297.41c-.27.22-.52.51-.84.73a85,85,0,0,1-15.75,11.64c-13.91,8.05-30.55,13.5-48.29,16.43-37.11,6.1-78.76.8-108.3-15.86a8.21,8.21,0,0,0-1-.57c-1.07-.64-2.17-1.27-3.18-1.94a81,81,0,0,1-13.14-10c-11-10.35-16.52-22.22-16.52-34.06l-.13,33.36c0,11.84,5.49,23.64,16.65,34.07a88.91,88.91,0,0,0,13,10c1,.63,2.1,1.24,3.17,1.87.38.23.72.39,1,.58,29.6,16.71,71.19,21.94,108.3,15.9,17.73-2.92,34.4-8.38,48.36-16.48a88.72,88.72,0,0,0,15.75-11.58,8.77,8.77,0,0,1,.84-.79c10.2-10,15.31-21.27,15.43-32.63,0-10,0-23.31.13-33.3C697.78,276.08,692.67,287.36,682.41,297.41Z" transform="translate(-68)"/><path class="cls-18" d="M661.62,271.32c4.08,2.36,5.8,5.77,3.62,9.41l-2.93,3.83c-5.17,6.44-19.26,6.92-27.81,2l-16.13-9.3c-8.56-4.95-5.61-9.22,6.7-9.06l22.32.07A28.33,28.33,0,0,1,661.62,271.32Z" transform="translate(-68)"/><path class="cls-18" d="M558.09,269.79c2.8,1.66,1.85,4.34-3.57,7.47l-15.56,9c-7.47,4.34-18.25,4.91-24.69,1.22a11.17,11.17,0,0,1-3.19-2.72l-3-4.3c-4.14-6.7,5.17-12.44,17.75-12.44h22.32C552.86,268.1,556.24,268.71,558.09,269.79Z" transform="translate(-68)"/><path class="cls-18" d="M625.26,291.93c8.54,4.9,7.83,13.1-3.33,16.14l-6.69,1.71c-6.18,1.25-12.11.23-16.15-2.13-3.51-2-5.55-4.94-5.47-8.2V286.51c-.46-7.09,7-8.84,15.56-3.87Z" transform="translate(-68)"/><path class="cls-18" d="M577.1,280.73c1.85,1.09,2.92,3,3,5.78l.08,12.94C580,306.54,570,312,558.41,309.56l-7.09-1.49a18.11,18.11,0,0,1-4.58-1.89c-6.45-3.69-5.55-10,1.91-14.25l15.56-9.06C569.63,279.72,574.22,279.14,577.1,280.73Z" transform="translate(-68)"/><path class="cls-19" d="M664.88,218.7c43.61,25.19,43.94,66.08.94,91.08-43.31,25.13-114,25.2-157.62,0s-43.75-66.12-.44-91.31C550.69,193.54,621.23,193.54,664.88,218.7Zm-150,87.19c39.93,23,104.16,22.82,143.84-.22,39.3-22.8,39.48-60.05-.51-83.08s-104.16-22.84-143.39,0c-39.67,23-39.8,60.28.06,83.3Z" transform="translate(-68)"/><path class="cls-18" d="M626.47,222.3c6.45,3.71,5.48,10-1.92,14.26L609,245.62c-5.48,3.19-10.09,3.76-13,2.1-1.85-1.08-2.92-3-3.07-5.74l-.12-12.91c0-7.34,10-12.7,21.57-10.37l7.4,1.72A17.71,17.71,0,0,1,626.47,222.3Z" transform="translate(-68)"/><path class="cls-18" d="M658.87,241a11.87,11.87,0,0,1,3.19,2.67l2.61,4.13c4.14,6.66-5.09,12.49-17.35,12.72L625,260.45c-4.71-.07-8.09-.71-9.88-1.79-2.88-1.62-1.91-4.27,3.51-7.45l15.62-9C641.65,237.88,652.49,237.29,658.87,241Z" transform="translate(-68)"/><path class="cls-18" d="M554.77,251.21c8.55,5,5.55,9.24-6.63,9.07H525.82c-5.89,0-11-1.26-14.43-3.24-3.95-2.3-5.67-5.65-3.51-9.25l2.95-3.9C516,237.46,530.09,237,538.7,242Z" transform="translate(-68)"/><path class="cls-20" d="M658.23,222.59c40,23,39.81,60.28.51,83.08-39.68,23-103.91,23.26-143.84.22s-39.73-60.27-.06-83.3C554.07,199.75,618.37,199.54,658.23,222.59Zm3.39,48.73a28.33,28.33,0,0,0-14.23-3.05l-22.32-.07c-12.31-.16-15.26,4.11-6.7,9.06l16.13,9.3c8.55,4.92,22.64,4.44,27.81-2l2.93-3.83c2.18-3.64.46-7.05-3.62-9.41ZM551.2,220.42c-11.48,3.26-11.86,11.23-3.32,16.18L564,245.84c8.54,5,15.94,3.26,15.56-3.86l-.06-12.91c0-3.42-2.17-6.38-5.62-8.33-3.95-2.32-9.82-3.29-16.06-2l-6.64,1.72Zm70.73,87.65c11.16-3,11.87-11.24,3.33-16.14l-16.08-9.29c-8.55-5-16-3.22-15.56,3.87v12.94c-.08,3.26,2,6.22,5.47,8.2,4,2.36,10,3.38,16.15,2.13l6.69-1.71ZM511.39,257c3.45,2,8.54,3.24,14.43,3.24h22.32c12.18.17,15.18-4.11,6.63-9.07L538.7,242c-8.61-5-22.66-4.52-27.87,1.91l-2.95,3.9c-2.16,3.6-.44,7,3.51,9.25Zm97.54-11.42,15.62-9.06c7.4-4.27,8.37-10.55,1.92-14.26a17.71,17.71,0,0,0-4.65-1.88l-7.4-1.72c-11.55-2.39-21.57,3-21.57,10.37L593,242c.15,2.71,1.22,4.66,3.07,5.74,2.86,1.66,7.47,1.09,12.89-2.1Zm-70,40.66,15.56-9c5.42-3.13,6.37-5.81,3.57-7.47-1.85-1.08-5.23-1.69-10-1.75H525.82c-12.58,0-21.89,5.74-17.75,12.44l3,4.3a11.17,11.17,0,0,0,3.19,2.72c6.44,3.69,17.22,3.12,24.69-1.22Zm19.45,23.28c11.54,2.4,21.55-3,21.82-10.11l-.08-12.94c-.13-2.75-1.2-4.69-3-5.78-2.88-1.59-7.47-1-12.89,2.14l-15.56,9.06c-7.46,4.27-8.36,10.56-1.91,14.25a18.11,18.11,0,0,0,4.58,1.89l7.09,1.49Zm75.83-67.35-15.62,9c-5.42,3.18-6.39,5.83-3.51,7.45,1.79,1.08,5.17,1.72,9.88,1.79l22.33.06c12.26-.23,21.49-6.06,17.35-12.72l-2.61-4.13a11.87,11.87,0,0,0-3.19-2.67c-6.38-3.7-17.22-3.11-24.63,1.22Z" transform="translate(-68)"/><path class="cls-18" d="M573.9,220.74c3.45,1.95,5.62,4.91,5.62,8.33l.06,12.91c.38,7.12-7,8.83-15.56,3.86l-16.14-9.24c-8.54-4.95-8.16-12.92,3.32-16.18l6.64-1.72C564.08,217.45,570,218.42,573.9,220.74Z" transform="translate(-68)"/><path class="cls-17" d="M515.27,399.3a8.54,8.54,0,0,1-.82.74,86.33,86.33,0,0,1-15.77,11.64c-13.9,8-30.55,13.5-48.29,16.43-37.11,6.09-78.77.79-108.29-15.86a9.16,9.16,0,0,0-1-.57c-1.09-.64-2.16-1.27-3.19-1.95a81.52,81.52,0,0,1-13.14-10c-11-10.36-16.53-22.23-16.53-34.06l-.12,33.36c0,11.83,5.48,23.63,16.65,34.07a88.61,88.61,0,0,0,13,10c1,.63,2.11,1.24,3.2,1.88l1,.57c29.6,16.71,71.19,21.95,108.32,15.91,17.72-2.93,34.38-8.39,48.34-16.48a88.35,88.35,0,0,0,15.76-11.59c.32-.27.51-.56.83-.79,10.21-10,15.3-21.26,15.43-32.62,0-10,0-23.31.13-33.3C530.64,378,525.55,389.25,515.27,399.3Z" transform="translate(-68)"/><path class="cls-18" d="M494.47,373.22c4.08,2.35,5.81,5.77,3.64,9.41l-2.94,3.82c-5.15,6.44-19.26,6.93-27.81,2l-16.13-9.31c-8.56-4.94-5.62-9.21,6.7-9.06l22.33.07A28.27,28.27,0,0,1,494.47,373.22Z" transform="translate(-68)"/><path class="cls-18" d="M391,371.68c2.8,1.67,1.84,4.35-3.57,7.47l-15.58,9c-7.46,4.34-18.24,4.91-24.68,1.21a11.16,11.16,0,0,1-3.19-2.71l-3-4.31c-4.15-6.69,5.17-12.43,17.72-12.43H381C385.73,370,389.1,370.61,391,371.68Z" transform="translate(-68)"/><path class="cls-18" d="M458.12,393.82c8.54,4.91,7.84,13.11-3.32,16.14l-6.69,1.72c-6.2,1.25-12.13.23-16.14-2.14-3.51-2-5.55-4.93-5.49-8.19v-13c-.44-7.08,7-8.84,15.56-3.87Z" transform="translate(-68)"/><path class="cls-18" d="M410,382.63c1.85,1.08,2.95,3,3.07,5.77l.07,13c-.26,7.08-10.27,12.51-21.83,10.1L384.2,410a18.3,18.3,0,0,1-4.61-1.89c-6.45-3.68-5.55-10,1.92-14.25l15.57-9.06C402.49,381.61,407.09,381,410,382.63Z" transform="translate(-68)"/><path class="cls-19" d="M497.73,320.59c43.63,25.19,43.95,66.09.95,91.09-43.31,25.13-114,25.2-157.61,0s-43.75-66.12-.44-91.31C383.55,295.43,454.1,295.43,497.73,320.59Zm-150,87.2c39.93,23,104.16,22.81,143.85-.22,39.28-22.81,39.47-60.06-.52-83.08s-104.16-22.85-143.39,0c-39.68,23-39.79,60.27.06,83.3Z" transform="translate(-68)"/><path class="cls-18" d="M459.34,324.2c6.43,3.7,5.47,10-1.93,14.26l-15.55,9.05c-5.5,3.19-10.08,3.76-13,2.11-1.85-1.09-2.93-3-3-5.74L425.72,331c0-7.35,10-12.7,21.55-10.38l7.4,1.73A17.73,17.73,0,0,1,459.34,324.2Z" transform="translate(-68)"/><path class="cls-18" d="M491.72,342.89a11.28,11.28,0,0,1,3.2,2.67l2.62,4.12c4.15,6.67-5.11,12.5-17.34,12.73l-22.33-.06c-4.73-.07-8.11-.71-9.89-1.8-2.87-1.62-1.92-4.26,3.52-7.45l15.6-9C474.52,339.77,485.35,339.18,491.72,342.89Z" transform="translate(-68)"/><path class="cls-18" d="M387.63,353.1c8.55,5,5.55,9.25-6.63,9.08H358.67c-5.86,0-11-1.27-14.42-3.25-3.95-2.29-5.66-5.64-3.49-9.25l2.92-3.9c5.24-6.43,19.26-6.88,27.88-1.9Z" transform="translate(-68)"/><path class="cls-20" d="M491.09,324.49c40,23,39.8,60.27.52,83.08-39.69,23-103.92,23.25-143.85.22s-39.74-60.28-.06-83.3C386.93,301.64,451.23,301.43,491.09,324.49Zm3.38,48.73a28.27,28.27,0,0,0-14.21-3.06l-22.33-.07c-12.32-.15-15.26,4.12-6.7,9.06l16.13,9.31c8.55,4.92,22.66,4.43,27.81-2l2.94-3.82c2.17-3.64.44-7.06-3.64-9.41Zm-110.42-50.9c-11.48,3.25-11.86,11.22-3.32,16.17l16.15,9.25c8.55,5,15.95,3.25,15.57-3.86L412.37,331c0-3.43-2.15-6.39-5.59-8.34-4-2.32-9.84-3.28-16.09-2l-6.64,1.73ZM454.8,410c11.16-3,11.86-11.23,3.32-16.14L442,384.53c-8.54-5-16-3.21-15.56,3.87v13c-.06,3.26,2,6.22,5.49,8.19,4,2.37,9.94,3.39,16.14,2.14L454.8,410Zm-110.55-51c3.45,2,8.56,3.25,14.42,3.25H381c12.18.17,15.18-4.11,6.63-9.08l-16.07-9.22c-8.62-5-22.64-4.53-27.88,1.9l-2.92,3.9c-2.17,3.61-.46,7,3.49,9.25Zm97.54-11.42,15.62-9.05c7.4-4.28,8.36-10.56,1.93-14.26a17.73,17.73,0,0,0-4.67-1.88l-7.4-1.73c-11.54-2.38-21.55,3-21.55,10.38l.13,12.91c.12,2.71,1.2,4.65,3,5.74,2.88,1.65,7.46,1.08,12.89-2.11Zm-70,40.67,15.58-9c5.41-3.12,6.37-5.8,3.57-7.47-1.86-1.07-5.23-1.68-10-1.74H358.67c-12.55,0-21.87,5.74-17.72,12.43l3,4.31a11.16,11.16,0,0,0,3.19,2.71c6.44,3.7,17.22,3.13,24.68-1.21Zm19.45,23.27c11.56,2.41,21.57-3,21.83-10.1l-.07-13c-.12-2.74-1.22-4.69-3.07-5.77-2.86-1.6-7.46-1-12.87,2.13l-15.57,9.06c-7.47,4.27-8.37,10.57-1.92,14.25A18.3,18.3,0,0,0,384.2,410l7.06,1.49ZM467.1,344.1l-15.6,9c-5.44,3.19-6.39,5.83-3.52,7.45,1.78,1.09,5.16,1.73,9.89,1.8l22.33.06c12.23-.23,21.49-6.06,17.34-12.73l-2.62-4.12a11.28,11.28,0,0,0-3.2-2.67c-6.37-3.71-17.2-3.12-24.62,1.21Z" transform="translate(-68)"/><path class="cls-18" d="M406.78,322.63c3.44,1.95,5.59,4.91,5.59,8.34l.08,12.91c.38,7.11-7,8.83-15.57,3.86l-16.15-9.25c-8.54-4.95-8.16-12.92,3.32-16.17l6.64-1.73C396.94,319.35,402.82,320.31,406.78,322.63Z" transform="translate(-68)"/><path class="cls-17" d="M348.21,501.18c-.27.23-.59.52-.84.75a86.18,86.18,0,0,1-15.82,11.64c-13.83,8-30.55,13.51-48.29,16.42-37,6.12-78.7.8-108.24-15.85l-1-.57a29.1,29.1,0,0,1-3.19-2,85.6,85.6,0,0,1-13.16-9.95c-11-10.4-16.57-22.27-16.51-34.06L141,501c0,11.8,5.49,23.6,16.59,34.06a89.16,89.16,0,0,0,13.08,10c1,.64,2,1.27,3.18,1.91.39.22.71.39,1,.54,29.58,16.71,71.17,22,108.24,15.92,17.74-2.91,34.45-8.39,48.35-16.46a86.31,86.31,0,0,0,15.75-11.61,7.82,7.82,0,0,0,.82-.79c10.28-10,15.39-21.28,15.39-32.6.06-10,.13-23.34.13-33.33C363.58,479.85,358.47,491.14,348.21,501.18Z" transform="translate(-68)"/><path class="cls-18" d="M327.35,475.13c4.08,2.33,5.86,5.78,3.7,9.41l-2.94,3.83c-5.17,6.43-19.33,6.88-27.88,2l-16.07-9.29c-8.55-5-5.67-9.25,6.63-9.06l22.33,0C318.79,472,323.9,473.12,327.35,475.13Z" transform="translate(-68)"/><path class="cls-18" d="M223.88,473.6c2.8,1.66,1.79,4.34-3.57,7.46l-15.62,9c-7.4,4.31-18.25,4.9-24.62,1.19a10.8,10.8,0,0,1-3.26-2.68l-3-4.34c-4.14-6.66,5.24-12.44,17.75-12.44h22.39C218.59,471.88,222,472.52,223.88,473.6Z" transform="translate(-68)"/><path class="cls-18" d="M291,495.74c8.54,4.88,7.85,13.11-3.25,16.13l-6.77,1.7a23.61,23.61,0,0,1-16.13-2.11c-3.45-2-5.55-4.95-5.42-8.2l-.07-12.95c-.46-7.08,7-8.84,15.63-3.89Z" transform="translate(-68)"/><path class="cls-18" d="M242.89,484.54c1.85,1.09,2.86,3,3.07,5.77v12.95c-.21,7.05-10.22,12.46-21.76,10.08l-7.08-1.47a18.27,18.27,0,0,1-4.65-1.88c-6.38-3.74-5.49-10,1.91-14.25l15.56-9.1C235.36,483.52,240,482.94,242.89,484.54Z" transform="translate(-68)"/><path class="cls-19" d="M330.59,422.51c43.71,25.19,44,66.08,1,91.06-43.31,25.16-114,25.23-157.54,0s-43.83-66.09-.52-91.32C216.42,397.34,287,397.34,330.59,422.51ZM180.64,509.7c39.92,23,104.22,22.81,143.83-.25,39.36-22.81,39.42-60-.44-83.08s-104.16-22.81-143.46,0c-39.61,23.06-39.8,60.27.07,83.33Z" transform="translate(-68)"/><path class="cls-18" d="M292.26,426.08c6.43,3.69,5.49,10-2,14.25l-15.57,9.1c-5.47,3.19-10,3.75-12.88,2.1a6.5,6.5,0,0,1-3.06-5.77l-.13-12.89c0-7.37,9.95-12.72,21.51-10.36l7.46,1.69A19.89,19.89,0,0,1,292.26,426.08Z" transform="translate(-68)"/><path class="cls-18" d="M324.68,444.8a12.74,12.74,0,0,1,3.17,2.68l2.61,4.12c4.16,6.66-5.09,12.46-17.41,12.69l-22.26-.07c-4.78,0-8.1-.66-9.88-1.75-2.87-1.66-2-4.27,3.51-7.47L300,446C307.44,441.64,318.22,441.1,324.68,444.8Z" transform="translate(-68)"/><path class="cls-18" d="M220.5,455c8.62,4.95,5.61,9.22-6.63,9.06H191.55c-5.82,0-10.91-1.23-14.36-3.25-4-2.26-5.68-5.64-3.51-9.21l2.94-3.9c5.17-6.44,19.26-6.88,27.86-1.94Z" transform="translate(-68)"/><path class="cls-20" d="M324,426.37c39.86,23.06,39.8,60.27.44,83.08-39.61,23.06-103.91,23.28-143.83.25s-39.68-60.27-.07-83.33C219.87,403.56,284.16,403.33,324,426.37Zm3.32,48.76c-3.45-2-8.56-3.18-14.23-3.09l-22.33,0c-12.3-.19-15.18,4.09-6.63,9.06l16.07,9.29c8.55,4.9,22.71,4.45,27.88-2l2.94-3.83c2.16-3.63.38-7.08-3.7-9.41ZM217,424.2c-11.48,3.25-11.86,11.26-3.31,16.2l16.07,9.25c8.6,4.94,16,3.25,15.56-3.89l-.06-12.89c.06-3.41-2.11-6.38-5.55-8.32-4-2.33-9.82-3.32-16.07-2L217,424.2Zm70.75,87.67c11.1-3,11.79-11.25,3.25-16.13l-16-9.32c-8.62-4.95-16.09-3.19-15.63,3.89l.07,12.95c-.13,3.25,2,6.19,5.42,8.2A23.61,23.61,0,0,0,281,513.57l6.77-1.7ZM177.19,460.81c3.45,2,8.54,3.25,14.36,3.25h22.32c12.24.16,15.25-4.11,6.63-9.06l-16-9.24c-8.6-4.94-22.69-4.5-27.86,1.94l-2.94,3.9c-2.17,3.57-.45,6.95,3.51,9.21Zm97.52-11.38,15.57-9.1c7.47-4.27,8.41-10.56,2-14.25a19.89,19.89,0,0,0-4.65-1.88l-7.46-1.69c-11.56-2.43-21.51,3-21.51,10.36l.13,12.89a6.5,6.5,0,0,0,3.06,5.77c2.88,1.65,7.41,1.09,12.88-2.1Zm-70,40.65,15.56-9c5.42-3.12,6.43-5.8,3.63-7.46-1.85-1.08-5.29-1.72-9.94-1.79H191.55c-12.51,0-21.89,5.78-17.75,12.44l3,4.34a10.8,10.8,0,0,0,3.26,2.68c6.37,3.71,17.22,3.12,24.62-1.19Zm19.51,23.26c11.54,2.38,21.55-3,21.76-10.08V490.31c-.21-2.75-1.22-4.68-3.07-5.77-2.88-1.6-7.53-1-12.95,2.1l-15.56,9.1c-7.4,4.27-8.29,10.51-1.91,14.25a18.8,18.8,0,0,0,4.58,1.88l7.15,1.47ZM300,446l-15.56,9c-5.49,3.2-6.38,5.81-3.51,7.47,1.78,1.09,5.1,1.72,9.88,1.75l22.26.07c12.32-.23,21.57-6,17.41-12.69l-2.61-4.12a12.74,12.74,0,0,0-3.17-2.68c-6.46-3.7-17.24-3.16-24.7,1.19Z" transform="translate(-68)"/><path class="cls-18" d="M239.7,424.55c3.44,1.94,5.61,4.91,5.55,8.32l.06,12.89c.44,7.14-7,8.83-15.56,3.89l-16.07-9.25c-8.55-4.94-8.17-12.95,3.31-16.2l6.64-1.69C229.88,421.23,235.68,422.22,239.7,424.55Z" transform="translate(-68)"/><path class="cls-17" d="M870.08,416.4a10.24,10.24,0,0,1-.84.73,85.49,85.49,0,0,1-15.75,11.65c-13.91,8-30.55,13.49-48.29,16.42-37.11,6.1-78.78.8-108.3-15.85a7.69,7.69,0,0,0-1-.57c-1.08-.64-2.17-1.28-3.18-1.95a81,81,0,0,1-13.14-10c-11-10.36-16.53-22.23-16.53-34.06l-.12,33.35c0,11.85,5.49,23.64,16.65,34.07a88.12,88.12,0,0,0,13,10c1,.63,2.11,1.24,3.18,1.87.38.23.7.39,1,.59,29.6,16.7,71.19,21.93,108.3,15.9,17.73-2.93,34.38-8.38,48.36-16.49a88.69,88.69,0,0,0,15.75-11.57,6.3,6.3,0,0,1,.84-.8c10.2-10,15.3-21.27,15.43-32.62,0-10,0-23.32.13-33.31C885.45,395.07,880.34,406.35,870.08,416.4Z" transform="translate(-68)"/><path class="cls-18" d="M849.29,390.31c4.08,2.37,5.8,5.77,3.62,9.41L850,403.56c-5.17,6.43-19.26,6.91-27.81,2L806,396.25c-8.56-4.95-5.62-9.22,6.7-9.06l22.31.07A28.45,28.45,0,0,1,849.29,390.31Z" transform="translate(-68)"/><path class="cls-18" d="M745.76,388.78c2.8,1.67,1.85,4.34-3.58,7.47l-15.56,9c-7.46,4.34-18.24,4.91-24.68,1.22a11.32,11.32,0,0,1-3.19-2.71l-3-4.3c-4.14-6.71,5.17-12.45,17.74-12.45h22.33C740.52,387.09,743.91,387.7,745.76,388.78Z" transform="translate(-68)"/><path class="cls-18" d="M812.92,410.92c8.55,4.91,7.84,13.11-3.32,16.14l-6.69,1.72c-6.19,1.24-12.12.22-16.15-2.14-3.51-2-5.55-4.94-5.47-8.2V405.49c-.46-7.07,7-8.83,15.56-3.86Z" transform="translate(-68)"/><path class="cls-18" d="M764.76,399.72c1.86,1.09,2.93,3,3.06,5.77l.08,12.95c-.27,7.09-10.28,12.51-21.83,10.12l-7.08-1.5a18,18,0,0,1-4.59-1.89c-6.45-3.69-5.55-10,1.92-14.25l15.56-9.06C757.3,398.71,761.89,398.13,764.76,399.72Z" transform="translate(-68)"/><path class="cls-19" d="M852.54,337.7c43.62,25.18,44,66.08,1,91.08-43.31,25.12-114,25.2-157.62,0s-43.76-66.12-.44-91.31C738.36,312.53,808.9,312.53,852.54,337.7Zm-150,87.19c39.93,23,104.16,22.81,143.84-.22,39.29-22.81,39.48-60.06-.51-83.09s-104.16-22.84-143.39,0c-39.67,23-39.8,60.28.06,83.31Z" transform="translate(-68)"/><path class="cls-18" d="M814.13,341.29c6.44,3.71,5.49,10-1.91,14.27l-15.56,9.05c-5.49,3.19-10.09,3.76-12.95,2.1-1.85-1.08-2.94-3-3.07-5.74l-.12-12.91c0-7.34,10-12.7,21.56-10.36l7.39,1.71A17.85,17.85,0,0,1,814.13,341.29Z" transform="translate(-68)"/><path class="cls-18" d="M846.53,360a11.62,11.62,0,0,1,3.2,2.68l2.61,4.12c4.14,6.66-5.09,12.49-17.35,12.72l-22.33-.06c-4.71-.07-8.09-.71-9.88-1.79-2.88-1.62-1.91-4.27,3.51-7.45l15.62-9C829.31,356.87,840.16,356.28,846.53,360Z" transform="translate(-68)"/><path class="cls-18" d="M742.44,370.2c8.55,5,5.55,9.24-6.63,9.07H713.48c-5.88,0-11-1.26-14.42-3.24-3.95-2.3-5.67-5.65-3.51-9.25l2.94-3.9c5.22-6.43,19.26-6.88,27.88-1.91Z" transform="translate(-68)"/><path class="cls-20" d="M845.9,341.58c40,23,39.8,60.28.51,83.09-39.68,23-103.91,23.25-143.84.22s-39.73-60.28-.06-83.31C741.74,318.74,806,318.53,845.9,341.58Zm3.39,48.73a28.45,28.45,0,0,0-14.24-3.05l-22.31-.07c-12.32-.16-15.26,4.11-6.7,9.06l16.13,9.31c8.55,4.91,22.64,4.43,27.81-2l2.93-3.84c2.18-3.64.46-7-3.62-9.41Zm-110.43-50.9c-11.48,3.26-11.86,11.23-3.32,16.18l16.15,9.24c8.54,5,15.94,3.27,15.56-3.86l-.07-12.91c0-3.42-2.16-6.38-5.61-8.33-4-2.32-9.82-3.28-16.07-2l-6.64,1.71Zm70.74,87.65c11.16-3,11.87-11.23,3.32-16.14l-16.07-9.29c-8.56-5-16-3.21-15.56,3.86v12.95c-.08,3.26,2,6.23,5.47,8.2,4,2.36,10,3.38,16.15,2.14l6.69-1.72ZM699.06,376c3.45,2,8.54,3.24,14.42,3.24h22.33c12.18.17,15.18-4.11,6.63-9.07L726.37,361c-8.62-5-22.66-4.52-27.88,1.91l-2.94,3.9c-2.16,3.6-.44,7,3.51,9.25Zm97.54-11.42,15.62-9.05c7.4-4.28,8.35-10.56,1.91-14.27a17.85,17.85,0,0,0-4.66-1.88l-7.39-1.71c-11.54-2.39-21.56,3-21.56,10.36l.12,12.91c.13,2.71,1.22,4.66,3.07,5.74,2.86,1.66,7.46,1.09,12.89-2.1Zm-70,40.66,15.56-9c5.43-3.13,6.38-5.8,3.58-7.47-1.85-1.08-5.24-1.69-10-1.75H713.48c-12.57,0-21.88,5.74-17.74,12.45l3,4.3a11.32,11.32,0,0,0,3.19,2.71c6.44,3.69,17.22,3.12,24.68-1.22Zm19.45,23.29c11.55,2.39,21.56-3,21.83-10.12l-.08-12.95c-.13-2.73-1.2-4.68-3.06-5.77-2.87-1.59-7.46-1-12.88,2.14l-15.56,9.06c-7.47,4.27-8.37,10.56-1.92,14.25a18,18,0,0,0,4.59,1.89l7.08,1.5Zm75.84-67.36-15.62,9c-5.42,3.18-6.39,5.83-3.51,7.45,1.79,1.08,5.17,1.72,9.88,1.79l22.33.06c12.26-.23,21.49-6.06,17.35-12.72l-2.61-4.12a11.62,11.62,0,0,0-3.2-2.68c-6.37-3.7-17.22-3.11-24.62,1.22Z" transform="translate(-68)"/><path class="cls-18" d="M761.57,339.73c3.45,1.95,5.61,4.91,5.61,8.33l.07,12.91c.38,7.13-7,8.83-15.56,3.86l-16.15-9.24c-8.54-4.95-8.16-12.92,3.32-16.18l6.64-1.71C751.75,336.45,757.62,337.41,761.57,339.73Z" transform="translate(-68)"/><path class="cls-17" d="M702.94,518.29a8.7,8.7,0,0,1-.83.74,86.38,86.38,0,0,1-15.76,11.65c-13.9,8-30.55,13.49-48.29,16.42-37.12,6.09-78.77.8-108.31-15.86a7.39,7.39,0,0,0-1-.56c-1.09-.64-2.17-1.28-3.19-2a81.49,81.49,0,0,1-13.14-10c-11-10.37-16.53-22.24-16.53-34.07L495.76,518c0,11.84,5.48,23.63,16.65,34.07a87.93,87.93,0,0,0,13,10c1,.63,2.1,1.25,3.2,1.88.37.22.69.38,1,.58,29.6,16.7,71.19,21.94,108.32,15.91,17.72-2.94,34.37-8.39,48.34-16.49a89.55,89.55,0,0,0,15.76-11.58c.32-.28.51-.57.82-.79,10.22-10,15.31-21.27,15.44-32.63,0-10,0-23.31.12-33.3C718.31,497,713.22,508.25,702.94,518.29Z" transform="translate(-68)"/><path class="cls-18" d="M682.14,492.21c4.08,2.36,5.81,5.77,3.64,9.41l-2.94,3.83c-5.16,6.43-19.26,6.92-27.82,2l-16.13-9.31c-8.55-4.94-5.61-9.21,6.71-9.06l22.33.07A28.27,28.27,0,0,1,682.14,492.21Z" transform="translate(-68)"/><path class="cls-18" d="M578.62,490.68c2.81,1.67,1.85,4.34-3.56,7.46l-15.58,9c-7.46,4.34-18.25,4.91-24.68,1.21a11.34,11.34,0,0,1-3.2-2.71l-3-4.3c-4.15-6.7,5.17-12.44,17.72-12.44h22.33C573.4,489,576.76,489.6,578.62,490.68Z" transform="translate(-68)"/><path class="cls-18" d="M645.79,512.82c8.54,4.9,7.84,13.1-3.32,16.13l-6.69,1.73c-6.2,1.23-12.13.22-16.15-2.15-3.51-2-5.55-4.93-5.48-8.19v-13c-.45-7.08,7-8.84,15.56-3.86Z" transform="translate(-68)"/><path class="cls-18" d="M597.62,501.62c1.85,1.08,2.94,3,3.07,5.77l.06,13c-.25,7.08-10.27,12.51-21.82,10.11l-7.07-1.5a17.51,17.51,0,0,1-4.6-1.89c-6.45-3.68-5.55-10,1.91-14.24l15.58-9.07C590.16,500.6,594.74,500,597.62,501.62Z" transform="translate(-68)"/><path class="cls-19" d="M685.4,439.59c43.63,25.19,43.94,66.08,1,91.09-43.31,25.12-114,25.19-157.61,0s-43.75-66.13-.44-91.32C571.22,414.43,641.77,414.43,685.4,439.59Zm-150,87.19c39.93,23,104.16,22.81,143.85-.22,39.28-22.81,39.47-60-.52-83.08s-104.16-22.85-143.39,0c-39.68,23-39.8,60.27.06,83.3Z" transform="translate(-68)"/><path class="cls-18" d="M647,443.19c6.45,3.7,5.49,10-1.91,14.26l-15.56,9.06c-5.49,3.18-10.08,3.75-12.95,2.1-1.85-1.09-2.93-3-3.06-5.74L613.39,450c0-7.35,10-12.7,21.55-10.37l7.4,1.72A17.29,17.29,0,0,1,647,443.19Z" transform="translate(-68)"/><path class="cls-18" d="M679.39,461.88a11.42,11.42,0,0,1,3.2,2.67l2.62,4.12c4.14,6.67-5.11,12.5-17.35,12.73l-22.32-.06c-4.73-.07-8.12-.71-9.89-1.8-2.88-1.62-1.93-4.27,3.51-7.45l15.61-9C662.19,458.76,673,458.17,679.39,461.88Z" transform="translate(-68)"/><path class="cls-18" d="M575.29,472.09c8.56,5,5.55,9.25-6.62,9.08H546.34c-5.87,0-11-1.27-14.42-3.25-3.95-2.29-5.66-5.64-3.51-9.25l2.94-3.89c5.23-6.44,19.26-6.88,27.88-1.91Z" transform="translate(-68)"/><path class="cls-20" d="M678.76,443.48c40,23,39.8,60.27.52,83.08-39.69,23-103.92,23.25-143.85.22s-39.74-60.27-.06-83.3C574.6,420.63,638.89,420.42,678.76,443.48Zm3.38,48.73a28.27,28.27,0,0,0-14.21-3.06l-22.33-.07c-12.32-.15-15.26,4.12-6.71,9.06L655,507.45c8.56,4.92,22.66,4.43,27.82-2l2.94-3.83c2.17-3.64.44-7.05-3.64-9.41Zm-110.42-50.9c-11.48,3.26-11.86,11.23-3.32,16.17l16.15,9.25c8.55,5,16,3.26,15.57-3.86L600,450c0-3.42-2.15-6.39-5.6-8.33-4-2.33-9.83-3.29-16.08-2l-6.64,1.72ZM642.47,529c11.16-3,11.86-11.23,3.32-16.13l-16.08-9.29c-8.54-5-16-3.22-15.56,3.86v13c-.07,3.26,2,6.22,5.48,8.19,4,2.37,10,3.38,16.15,2.15l6.69-1.73Zm-110.55-51c3.45,2,8.55,3.25,14.42,3.25h22.33c12.17.17,15.18-4.11,6.62-9.08l-16.06-9.22c-8.62-5-22.65-4.53-27.88,1.91l-2.94,3.89c-2.15,3.61-.44,7,3.51,9.25Zm97.53-11.41,15.63-9.06c7.4-4.27,8.36-10.56,1.91-14.26a17.29,17.29,0,0,0-4.65-1.88l-7.4-1.72c-11.54-2.39-21.55,3-21.55,10.37l.12,12.91c.13,2.71,1.21,4.65,3.06,5.74,2.87,1.65,7.46,1.08,12.88-2.1Zm-70,40.66,15.58-9c5.41-3.12,6.37-5.79,3.56-7.46-1.86-1.08-5.22-1.69-10-1.75H546.34c-12.55,0-21.87,5.74-17.72,12.44l3,4.3a11.34,11.34,0,0,0,3.2,2.71c6.43,3.7,17.22,3.13,24.68-1.21Zm19.45,23.28c11.55,2.4,21.57-3,21.82-10.11l-.06-13c-.13-2.73-1.22-4.69-3.07-5.77-2.88-1.6-7.46-1-12.87,2.13l-15.58,9.07c-7.46,4.26-8.36,10.56-1.91,14.24a17.51,17.51,0,0,0,4.6,1.89l7.07,1.5Zm75.84-67.36-15.61,9c-5.44,3.18-6.39,5.83-3.51,7.45,1.77,1.09,5.16,1.73,9.89,1.8l22.32.06c12.24-.23,21.49-6.06,17.35-12.73l-2.62-4.12a11.42,11.42,0,0,0-3.2-2.67c-6.37-3.71-17.2-3.12-24.62,1.21Z" transform="translate(-68)"/><path class="cls-18" d="M594.44,441.63c3.45,1.94,5.6,4.91,5.6,8.33l.08,12.91c.38,7.12-7,8.83-15.57,3.86l-16.15-9.25c-8.54-4.94-8.16-12.91,3.32-16.17l6.64-1.72C584.61,438.34,590.48,439.3,594.44,441.63Z" transform="translate(-68)"/><path class="cls-17" d="M535.87,620.18c-.27.22-.58.51-.84.74a85.3,85.3,0,0,1-15.81,11.64c-13.83,8-30.55,13.51-48.29,16.42-37.05,6.12-78.7.8-108.24-15.84l-1-.58a30.24,30.24,0,0,1-3.2-1.95,86,86,0,0,1-13.15-10c-11-10.4-16.57-22.26-16.51-34.06L328.69,620c0,11.79,5.49,23.6,16.59,34.06a89.44,89.44,0,0,0,13.06,10c1,.64,2.06,1.27,3.2,1.91.39.22.71.39,1,.54,29.59,16.72,71.18,22,108.24,15.93,17.75-2.91,34.46-8.39,48.36-16.47a87.22,87.22,0,0,0,15.75-11.6,10.48,10.48,0,0,0,.82-.8c10.28-10,15.39-21.28,15.39-32.6.06-10,.12-23.34.12-33.32C551.24,598.84,546.14,610.14,535.87,620.18Z" transform="translate(-68)"/><path class="cls-18" d="M515,594.12c4.08,2.33,5.86,5.78,3.7,9.41l-3,3.83c-5.17,6.44-19.32,6.89-27.87,2l-16.07-9.29c-8.55-5-5.68-9.25,6.63-9.06l22.32,0C506.46,590.94,511.57,592.11,515,594.12Z" transform="translate(-68)"/><path class="cls-18" d="M411.55,592.59c2.8,1.66,1.79,4.34-3.57,7.46l-15.63,9c-7.4,4.31-18.24,4.89-24.62,1.18a10.47,10.47,0,0,1-3.25-2.68l-3-4.34c-4.14-6.66,5.24-12.44,17.74-12.44h22.38C406.25,590.88,409.7,591.51,411.55,592.59Z" transform="translate(-68)"/><path class="cls-18" d="M478.66,614.73c8.54,4.88,7.85,13.11-3.26,16.13l-6.76,1.7a23.69,23.69,0,0,1-16.15-2.11c-3.43-2-5.55-4.94-5.41-8.19l-.06-13c-.46-7.09,7-8.84,15.62-3.89Z" transform="translate(-68)"/><path class="cls-18" d="M430.56,603.53c1.85,1.09,2.86,3,3.07,5.78v13c-.21,7-10.22,12.46-21.76,10.07l-7.09-1.47a18.65,18.65,0,0,1-4.65-1.87c-6.37-3.74-5.48-10,1.92-14.26l15.56-9.09C423,602.51,427.68,601.94,430.56,603.53Z" transform="translate(-68)"/><path class="cls-19" d="M518.26,541.5c43.7,25.19,44,66.08,1,91.06-43.31,25.16-114,25.23-157.54,0s-43.84-66.09-.52-91.31C404.09,516.33,474.69,516.33,518.26,541.5Zm-150,87.19c39.93,23,104.23,22.81,143.84-.25,39.36-22.8,39.42-60-.45-83.08s-104.15-22.8-143.45,0c-39.61,23.06-39.8,60.28.06,83.33Z" transform="translate(-68)"/><path class="cls-18" d="M479.93,545.07c6.43,3.7,5.48,10-2,14.25l-15.58,9.1c-5.47,3.19-10,3.76-12.87,2.1a6.46,6.46,0,0,1-3.06-5.77l-.13-12.88c0-7.37,9.95-12.73,21.5-10.37l7.47,1.69A19.89,19.89,0,0,1,479.93,545.07Z" transform="translate(-68)"/><path class="cls-18" d="M512.34,563.8a12.58,12.58,0,0,1,3.18,2.67l2.61,4.12c4.14,6.66-5.09,12.47-17.41,12.7l-22.26-.08c-4.78,0-8.1-.66-9.89-1.75-2.86-1.66-2-4.27,3.51-7.46l15.56-9C495.11,560.63,505.89,560.09,512.34,563.8Z" transform="translate(-68)"/><path class="cls-18" d="M408.17,574c8.62,4.94,5.61,9.21-6.64,9.06H379.21c-5.81,0-10.91-1.24-14.35-3.26-4-2.25-5.68-5.64-3.51-9.21l2.94-3.9c5.15-6.44,19.26-6.88,27.86-1.94Z" transform="translate(-68)"/><path class="cls-20" d="M511.69,545.36c39.87,23.06,39.81,60.28.45,83.08-39.61,23.06-103.91,23.28-143.84.25s-39.67-60.27-.06-83.33C407.54,522.56,471.83,522.33,511.69,545.36ZM515,594.12c-3.45-2-8.56-3.18-14.24-3.09l-22.32,0c-12.31-.19-15.18,4.09-6.63,9.06l16.07,9.29c8.55,4.91,22.7,4.46,27.87-2l3-3.83c2.16-3.63.38-7.08-3.7-9.41ZM404.66,543.19c-11.48,3.25-11.86,11.26-3.31,16.2l16.07,9.25c8.6,4.94,16,3.25,15.56-3.89l-.06-12.88c.06-3.42-2.11-6.39-5.56-8.33-4-2.32-9.82-3.31-16.06-2l-6.64,1.69Zm70.74,87.67c11.11-3,11.8-11.25,3.26-16.13l-16-9.31c-8.61-4.95-16.08-3.2-15.62,3.89l.06,13c-.14,3.25,2,6.18,5.41,8.19a23.69,23.69,0,0,0,16.15,2.11l6.76-1.7ZM364.86,579.8c3.44,2,8.54,3.26,14.35,3.26h22.32c12.25.15,15.26-4.12,6.64-9.06l-16-9.25c-8.6-4.94-22.71-4.5-27.86,1.94l-2.94,3.9c-2.17,3.57-.45,7,3.51,9.21Zm97.51-11.38,15.58-9.1c7.46-4.27,8.41-10.55,2-14.25a19.89,19.89,0,0,0-4.65-1.88l-7.47-1.69c-11.55-2.43-21.5,3-21.5,10.37l.13,12.88a6.46,6.46,0,0,0,3.06,5.77c2.88,1.66,7.4,1.09,12.87-2.1Zm-70,40.66,15.57-9c5.42-3.12,6.43-5.8,3.63-7.46-1.85-1.08-5.3-1.71-10-1.79H379.21c-12.5,0-21.88,5.78-17.74,12.44l3,4.34a10.47,10.47,0,0,0,3.25,2.68c6.38,3.71,17.22,3.13,24.62-1.18Zm19.52,23.25c11.54,2.39,21.55-3,21.76-10.07v-13c-.21-2.76-1.22-4.69-3.07-5.78-2.88-1.59-7.53-1-12.95,2.11l-15.56,9.09c-7.4,4.27-8.29,10.52-1.92,14.26a19.12,19.12,0,0,0,4.59,1.87l7.15,1.47ZM487.64,565l-15.56,9c-5.48,3.19-6.37,5.8-3.51,7.46,1.79,1.09,5.11,1.72,9.89,1.75l22.26.08c12.32-.23,21.55-6,17.41-12.7l-2.61-4.12a12.58,12.58,0,0,0-3.18-2.67c-6.45-3.71-17.23-3.17-24.7,1.18Z" transform="translate(-68)"/><path class="cls-18" d="M427.36,543.54c3.45,1.94,5.62,4.91,5.56,8.33l.06,12.88c.44,7.14-7,8.83-15.56,3.89l-16.07-9.25c-8.55-4.94-8.17-12.95,3.31-16.2l6.64-1.69C417.54,540.23,423.35,541.22,427.36,543.54Z" transform="translate(-68)"/><path class="cls-1" d="M900.9,230.61c41.56,24,41.21,63.24.41,86.9-26.58,15.55-66,21.49-103.59,15.55L785,335.31,514.54,492.46c-18.48,10.74-48.56,10.74-67.14,0L108.72,296.9C90.15,286.2,90,268.73,108.54,258L378.93,100.84l3.35-7.65c-9.87-21.45-.25-44.52,26.41-60.07,40.81-23.71,109-23.71,150.18,0Z" transform="translate(-68)"/><path class="cls-2" d="M456,338.57c10.18,5.87,26.18,5.87,36.06.11s10.06-15.14-.11-21c-9.92-5.76-26.17-5.65-36.06.11s-9.81,15,.11,20.74Z" transform="translate(-68)"/><path class="cls-2" d="M541.53,159.85c10.18,5.86,26.18,5.86,36.07.1s10-15.13-.12-21c-9.92-5.76-26.17-5.65-36.06.11s-9.81,15,.11,20.75Z" transform="translate(-68)"/><path class="cls-2" d="M658.89,316.45c10.18,5.87,26.19,5.87,36.07.1s10.06-15.13-.11-21c-9.92-5.75-26.18-5.64-36.06.11s-9.81,15,.1,20.75Z" transform="translate(-68)"/><path class="cls-2" d="M470.86,81.71c9.93,5.75,26,5.75,35.81,0s9.89-15-.06-20.79-26.22-5.9-36.1-.14-9.6,15.17.35,20.93Z" transform="translate(-68)"/><path class="cls-2" d="M350.79,221.19c7.82,4.53,20.1,4.49,27.85,0,7.56-4.38,7.74-11.66-.08-16.11-7.61-4.42-20.31-4.42-27.85-.07-7.78,4.52-7.56,11.8.08,16.18Z" transform="translate(-68)"/><path class="cls-2" d="M684.89,195.11c-7.83-4.53-20.1-4.53-27.63-.1-7.83,4.52-7.79,11.58.06,16.11,7.64,4.38,20.1,4.52,27.88,0,7.54-4.43,7.32-11.59-.31-16Z" transform="translate(-68)"/><path class="cls-2" d="M526.44,242.26c-4.43,2.53-4.43,6.48-.19,9a17,17,0,0,0,15.61,0c4.24-2.47,4.24-6.42-.25-9a16.51,16.51,0,0,0-15.17,0Z" transform="translate(-68)"/><path class="cls-2" d="M460.58,163.8a16.6,16.6,0,0,0-15.21,0c-4.38,2.5-4.38,6.44-.18,8.9s11.22,2.54,15.64,0c4.16-2.46,4-6.44-.25-8.9Z" transform="translate(-68)"/><path class="cls-2" d="M248,228.35a16.58,16.58,0,0,0-15.2,0c-4.39,2.5-4.39,6.44-.18,8.9s11.22,2.54,15.64,0c4.16-2.46,4-6.44-.26-8.9Z" transform="translate(-68)"/><path class="cls-2" d="M392,280.1a16.58,16.58,0,0,0-15.2,0c-4.39,2.49-4.39,6.44-.18,8.9s11.22,2.54,15.64,0c4.16-2.46,4-6.45-.26-8.9Z" transform="translate(-68)"/><path class="cls-2" d="M438.77,394a16.55,16.55,0,0,0-15.19,0c-4.39,2.5-4.39,6.44-.19,8.9s11.22,2.54,15.64,0c4.17-2.46,4-6.44-.26-8.9Z" transform="translate(-68)"/><path class="cls-2" d="M828.63,246.94a16.58,16.58,0,0,0-15.2,0c-4.38,2.49-4.38,6.44-.18,8.9s11.22,2.54,15.64,0c4.16-2.46,4-6.44-.26-8.9Z" transform="translate(-68)"/><path class="cls-3" d="M919.27,219.89c51.85,29.89,52.6,78.72,1.11,108.7-31.53,18.3-77.85,26-122.23,20.56L533.2,503.2c-28.68,16.6-75.51,16.68-104.25,0L90.23,307.65c-28.84-16.65-29.5-44-.83-60.71l265-154c-8.78-25.41,4.09-52.25,35.78-70.56,51.42-29.89,135.2-29.89,186.94,0ZM797.72,333.06c37.54,5.94,77,0,103.59-15.55,40.8-23.66,41.15-62.91-.41-86.9l-342-197.49c-41.15-23.71-109.37-23.71-150.18,0C382,48.67,372.41,71.74,382.28,93.19l-3.35,7.65L108.54,258c-18.54,10.71-18.39,28.18.18,38.88L447.4,492.46c18.58,10.74,48.66,10.74,67.14,0L785,335.31l12.7-2.25Z" transform="translate(-68)"/><path class="cls-4" d="M920.38,328.59c-31.53,18.3-77.85,26-122.23,20.56L533.2,503.2c-28.68,16.6-75.51,16.68-104.25,0L90.23,307.65c-14.62-8.45-22-19.66-22-30.78L68,370.44c0,11.15,7.35,22.35,22,30.79L428.6,596.8c28.84,16.67,75.66,16.59,104.25,0L798,442.75c44.39,5.35,90.56-2.26,122.14-20.57,25.43-14.79,38.14-34.24,38.14-53.68l.33-93.68C958.49,294.35,945.87,313.79,920.38,328.59Z" transform="translate(-68)"/></svg>