<svg id="レイヤー_1" data-name="レイヤー 1" xmlns="http://www.w3.org/2000/svg" viewBox="0 0 801.26 1000"><defs><style>.cls-1{fill:#e6e6e6;}.cls-2{fill:#f2f2f2;}.cls-3{fill:#ccc;}.cls-4{fill:#9e005d;}.cls-5{fill:#c1272d;}.cls-6,.cls-7{fill:#ed1c24;}.cls-7{opacity:0.6;}</style></defs><polygon class="cls-1" points="403.75 544.71 0 310.08 1.29 765.37 405.03 1000 403.75 544.71"/><polygon class="cls-2" points="799.97 316.17 396.23 81.54 0 310.3 403.75 544.94 799.97 316.17"/><polygon class="cls-3" points="403.75 544.71 405.03 1000 801.26 771.24 799.97 315.95 403.75 544.71"/><polygon class="cls-4" points="655.81 399.18 657.1 854.46 586.45 894.51 586.45 439.23 655.81 399.18"/><polyline class="cls-5" points="586.45 439.23 182.7 204.59 251.84 164.58 655.58 399.21 655.52 399.35 655.81 399.18"/><polygon class="cls-5" points="539.27 164.67 608.27 204.77 213.17 434.37 144.11 394.5 144.03 394.36 539.27 164.67"/><polyline class="cls-4" points="213.17 434.37 211.88 887.9 142.52 847.45 143.81 394.33 144.11 394.5"/><path class="cls-4" d="M661.09,40.22C692.29,52,649.94,191,492.47,305.77c0,0,177.2-229.56,57.74-303,0,0,27.17,20.91,60.06,32C626.65,40.31,650.74,36.32,661.09,40.22Z" transform="translate(-100.61)"/><path class="cls-5" d="M661.11,40.23c-84.44,38.6-126.93,95.63-148.06,147.1C486.72,251.49,493.59,307,493.59,307,461,231.89,459.5,171.26,471,124.38,491.66,40,554.44,0,554.44,0s26.84,15,46.36,21.5S661.11,40.23,661.11,40.23Z" transform="translate(-100.61)"/><path class="cls-4" d="M493.59,307C461,231.89,459.5,171.26,471,124.38c-4.72,25.71,34.29,62.24,42,63C486.72,251.49,493.59,307,493.59,307Z" transform="translate(-100.61)"/><path class="cls-4" d="M217.51,151.84c-16.8,5.84,71.05,151.91,276.93,153.76,0,0-256.77-146.17-186.77-244.1C307.67,61.5,279.11,130.42,217.51,151.84Z" transform="translate(-100.61)"/><path class="cls-5" d="M218.07,151.9a262.32,262.32,0,0,1,53.3,3.74c5.55.94,11.11,2.05,16.61,3.34,4.33,1,8.66,2.1,12.93,3.27.58.12,1.23.3,1.81.47s1.35.41,2,.59c35.34,10,68.51,25.86,96.65,43.41A349.44,349.44,0,0,1,448,241.12c36.91,32.52,44.81,64.35,44.81,64.35-.35-25.51-.53-37.15-2.46-53.88-5.2-45.17-28-81.61-55.69-110a312.57,312.57,0,0,0-49.15-40.31c-3.1-2-6.14-4-9.18-6-1.93-1.17-3.8-2.28-5.67-3.4-1.06-.64-2-1.28-3.11-1.87-3-1.75-5.9-3.45-8.77-5-28.67-15.85-50.55-23.4-50.55-23.4s-18.08,22.64-43.82,51.07C239.54,140.2,218.07,151.9,218.07,151.9Z" transform="translate(-100.61)"/><path class="cls-6" d="M385.5,101.23a312.57,312.57,0,0,1,49.15,40.31c-8.66,16.74-25.57,51.66-33.23,65.18a390.27,390.27,0,0,0-79.5-38.05l-.78-.27C338.39,167.32,377.45,120.1,385.5,101.23Z" transform="translate(-100.61)"/><path class="cls-7" d="M292.26,160.13l8.65,2.12,3.63,1.17c.06,0,.17,0,.23-.11,21.76-10.07,63-66.23,65.88-71.44-1.06-.64-2-1.28-3.11-1.87-3-1.75-5.9-3.45-8.77-5C341.8,119.73,292.26,160.13,292.26,160.13Z" transform="translate(-100.61)"/></svg>