<svg id="レイヤー_1" data-name="レイヤー 1" xmlns="http://www.w3.org/2000/svg" viewBox="0 0 309.06 165.22"><defs><style>.cls-1{font-size:72px;font-family:AcademyEngravedLetPlain, Academy Engraved LET;letter-spacing:0.15em;}.cls-2{fill:none;stroke:#000;stroke-miterlimit:10;}</style></defs><text class="cls-1" transform="translate(0 145.74)">SURYA</text><path class="cls-2" d="M506.36,350.09c12.77-.13,25.33.25,38.08.89" transform="translate(-498.51 -261.33)"/><path class="cls-2" d="M498.85,349.91l2.5.06" transform="translate(-498.51 -261.33)"/><path class="cls-2" d="M504.67,322.64c15.27,5.57,30.75,10.51,46.05,16" transform="translate(-498.51 -261.33)"/><path class="cls-2" d="M527.18,304.44q17.05,12.35,34.06,24.75" transform="translate(-498.51 -261.33)"/><path class="cls-2" d="M519,298.51c1.37,1,2.66,1.9,4,2.88" transform="translate(-498.51 -261.33)"/><path class="cls-2" d="M552.9,292.87q10.47,14.85,20.91,29.72" transform="translate(-498.51 -261.33)"/><path class="cls-2" d="M544.46,280.88c1.59,2.21,3.38,4.76,4.93,7" transform="translate(-498.51 -261.33)"/><path class="cls-2" d="M576.56,269q5.72,24.93,11.42,49.84" transform="translate(-498.51 -261.33)"/><path class="cls-2" d="M611.67,271.83c-2.58,15.19-5.57,30.28-8.66,45.38" transform="translate(-498.51 -261.33)"/><path class="cls-2" d="M613.5,262.23l-.6,3.14" transform="translate(-498.51 -261.33)"/><path class="cls-2" d="M646.24,273.12c-9.6,14.94-18.92,30.05-28.17,45.21" transform="translate(-498.51 -261.33)"/><path class="cls-2" d="M653.38,261.67a15.21,15.21,0,0,0-3.27,5.24" transform="translate(-498.51 -261.33)"/><path class="cls-2" d="M683,274.7c-17.27,15.3-34.29,30.86-51.29,46.46" transform="translate(-498.51 -261.33)"/><path class="cls-2" d="M710.59,286.65C688.1,300,665.42,313,642.72,326" transform="translate(-498.51 -261.33)"/><path class="cls-2" d="M726.14,277.63,723.83,279" transform="translate(-498.51 -261.33)"/><path class="cls-2" d="M731.34,303.81c-26.57,9.86-53.26,19.34-80,28.82" transform="translate(-498.51 -261.33)"/><path class="cls-2" d="M756.32,294.8l-5.55,2" transform="translate(-498.51 -261.33)"/><path class="cls-2" d="M755,323.49c-33.3,5.7-66.54,11.8-99.78,17.88" transform="translate(-498.51 -261.33)"/><path class="cls-2" d="M778.12,319.35l-6.5,1.16" transform="translate(-498.51 -261.33)"/><path class="cls-2" d="M749.72,350.14c-31.66.08-63.3.56-95,1.05" transform="translate(-498.51 -261.33)"/><path class="cls-2" d="M789.51,349.7a137.3,137.3,0,0,0-18.37.2" transform="translate(-498.51 -261.33)"/></svg>