<svg xmlns="http://www.w3.org/2000/svg" viewBox="0 0 988 871.24"><g id="レイヤー_1" data-name="レイヤー 1">
  <style>
    @media (prefers-color-scheme: dark) {
        path {
            fill: #fff;
        }
    }
</style>
  <path d="M656.93,477.13l233,234.43a27,27,0,0,1-.15,38.17v0a27,27,0,0,1-38.1-.16L618.49,515a27,27,0,0,0-38.08-.18L163.57,926.45a27,27,0,0,1-37.58.31l-1.14-1.08a27,27,0,0,1-.32-38.68l728.1-719.79c17.1-16.9,5.22-46-18.82-46.15L419.13,119a27,27,0,0,1-26.83-27.1v-.56a27,27,0,0,1,27.11-26.83l547.7,2.76c24,.12,35.92,29.23,18.84,46.13L657.08,439A27,27,0,0,0,656.93,477.13Z" transform="translate(-6 -64.48)"/><path d="M47.67,781.51,159.38,894.35c6.09,6.15,2.45,19.64-8.13,30.12l-.39.38c-10.59,10.48-24.11,14-30.2,7.83L9,819.84c-6.09-6.15-2.45-19.64,8.14-30.12l.38-.38C28.06,778.86,41.58,775.35,47.67,781.51Z" transform="translate(-6 -64.48)"/><path d="M745.26,824.08,857.53,711.81c6.13-6.13,19.63-2.55,30.16,8l.39.39c10.53,10.53,14.11,24,8,30.16L783.79,862.61c-6.13,6.12-19.63,2.55-30.16-8l-.39-.39C742.71,843.71,739.14,830.21,745.26,824.08Z" transform="translate(-6 -64.48)"/></g></svg>
